<svg width="50" height="50" viewBox="0 0 50 50" fill="none" xmlns="http://www.w3.org/2000/svg">
<rect width="50" height="50" rx="15" fill="#E22F2F"/>
<g opacity="0.300003">
<g opacity="0.300003">
<path opacity="0.300003" d="M43 40.6059C43 41.162 35.165 41.6128 25.5 41.6128C15.835 41.6128 8 41.162 8 40.6059C8 40.0498 15.835 39.599 25.5 39.599C35.165 39.599 43 40.0498 43 40.6059Z" fill="#000072"/>
</g>
</g>
<path d="M40.2299 39.3467C39.5354 40.0689 38.5166 40.4751 37.4527 40.4751H13.5458C12.4819 40.4751 11.463 40.0689 10.7685 39.3467C10.3848 38.9475 10.1012 38.5028 9.91043 38.0479C9.90971 38.0479 9.90971 38.0479 9.90971 38.0473C9.30954 36.6196 9.61534 35.0876 10.5728 34.5365C12.1804 33.61 13.42 34.7422 13.42 34.7422C13.5572 34.4532 13.743 34.2027 13.9509 33.988C14.734 33.1768 15.8314 32.868 15.8314 32.868C15.2348 29.7994 16.5666 27.0191 16.5666 27.0191C16.5666 27.0191 19.8483 29.2432 25.4992 29.2432C31.1501 29.2432 34.4318 27.0191 34.4318 27.0191C34.4318 27.0191 35.7636 29.7994 35.167 32.868C35.167 32.868 36.924 33.3627 37.5784 34.7422C37.5784 34.7422 38.8181 33.61 40.4257 34.5365C41.6882 35.2638 41.8175 37.6968 40.2299 39.3467Z" fill="#B11313"/>
<g opacity="0.300003">
<g opacity="0.300003">
<path opacity="0.300003" d="M14.377 37.5708C14.5985 35.6479 13.4238 34.8181 13.4238 34.8181C13.561 34.5291 13.7468 34.2786 13.9547 34.0639C15.7767 36.0182 14.377 37.5708 14.377 37.5708Z" fill="#000072"/>
</g>
</g>
<g opacity="0.300003">
<g opacity="0.300003">
<path opacity="0.300003" d="M36.6347 37.5708C36.4132 35.6479 37.5878 34.8181 37.5878 34.8181C37.4506 34.5291 37.2649 34.2786 37.057 34.0639C35.235 36.0182 36.6347 37.5708 36.6347 37.5708Z" fill="#000072"/>
</g>
</g>
<g opacity="0.300003">
<g opacity="0.300003">
<path opacity="0.300003" d="M36.8213 39.1848C36.651 39.1468 36.4755 39.1337 36.3012 39.1509C36.0527 39.1753 35.6252 39.2133 34.9982 39.2554C34.0545 39.3189 33.2303 38.6829 33.1659 37.8362C33.1382 37.4724 33.1989 37.19 33.2209 37.1026C32.9745 38.0474 32.5194 38.9178 32.242 39.3951C30.8335 39.4478 29.0495 39.4906 26.8434 39.5032C26.7244 35.6804 29.2007 32.096 29.2007 32.096C25.4065 34.8179 21.8108 32.096 21.8108 32.096C24.3144 36.0811 24.1841 39.3372 24.1841 39.3372L24.6057 39.5053C22.1966 39.4962 20.2699 39.4512 18.7695 39.3952C18.492 38.9178 18.037 38.0474 17.7905 37.1026C17.8134 37.1935 17.8781 37.4954 17.8417 37.8804C17.7634 38.709 16.9385 39.3177 16.0139 39.2555C15.3865 39.2133 14.9588 39.1754 14.7103 39.1509C14.5359 39.1337 14.3604 39.1468 14.1902 39.1848C11.47 39.7921 9.96259 38.177 9.91406 38.1236C10.1048 38.5785 10.3885 39.0232 10.7722 39.4224C11.4667 40.1445 12.4855 40.5508 13.5494 40.5508H25.5057H37.462C38.5259 40.5508 39.5448 40.1445 40.2393 39.4224C40.6229 39.0232 40.9066 38.5785 41.0974 38.1236C41.0488 38.177 39.5415 39.7921 36.8213 39.1848Z" fill="#000072"/>
</g>
</g>
<g opacity="0.300003">
<g opacity="0.300003">
<path opacity="0.300003" d="M17.785 37.103C17.7803 37.0844 17.7773 37.0742 17.7773 37.0742C17.7798 37.0838 17.7825 37.0934 17.785 37.103Z" fill="#000072"/>
</g>
</g>
<g opacity="0.300003">
<g opacity="0.300003">
<path opacity="0.300003" d="M33.2207 37.103C33.2232 37.0934 33.2259 37.0839 33.2283 37.0742C33.2283 37.0742 33.2254 37.0844 33.2207 37.103Z" fill="#000072"/>
</g>
</g>
<path d="M25.4962 40.3287H37.4526C38.4556 40.3287 39.3995 39.9455 40.0424 39.2774C40.873 38.4143 41.2825 37.219 41.1113 36.1581C41.011 35.5369 40.7124 35.0416 40.2919 34.7992C38.8701 33.9795 37.7997 34.933 37.7548 34.9739C37.6969 35.0269 37.6134 35.0505 37.532 35.0366C37.4508 35.0228 37.3825 34.9735 37.3502 34.9053C36.7473 33.6343 35.109 33.1607 35.0925 33.156C34.974 33.1227 34.9013 33.0157 34.9227 32.9059C35.3971 30.4673 34.6134 28.1858 34.3133 27.4382C33.4148 27.965 30.3231 29.5414 25.4991 29.5414C20.6751 29.5414 17.5833 27.965 16.6849 27.4382C16.3848 28.1858 15.601 30.4673 16.0755 32.9059C16.0968 33.0157 16.0242 33.1227 15.9056 33.156C15.8894 33.1607 14.2484 33.6394 13.648 34.9053C13.6156 34.9735 13.5474 35.0228 13.4661 35.0366C13.3849 35.0505 13.3013 35.0269 13.2433 34.9739C13.1986 34.9337 12.119 33.9847 10.7063 34.7992C10.2858 35.0416 9.98712 35.5369 9.88689 36.1581C9.71567 37.219 10.1252 38.4143 10.9557 39.2774C11.5986 39.9455 12.5426 40.3287 13.5456 40.3287H25.4962ZM37.4526 40.7729H13.5456C12.3984 40.7729 11.3178 40.3336 10.5807 39.5676C9.65915 38.6099 9.20543 37.2791 9.39662 36.0945C9.51918 35.3349 9.88916 34.7421 10.4384 34.4255C11.7455 33.672 12.8484 34.1641 13.3331 34.4706C13.9478 33.4611 15.0884 32.966 15.5539 32.7989C15.0355 29.7758 16.2844 27.1209 16.3388 27.0072C16.3689 26.9444 16.4294 26.8976 16.503 26.8801C16.5767 26.8626 16.6551 26.8764 16.7158 26.9176C16.7479 26.9393 20.0067 29.0971 25.4991 29.0971C30.9915 29.0971 34.2503 26.9393 34.2826 26.9175C34.3434 26.8764 34.4219 26.8627 34.4953 26.8802C34.5688 26.8977 34.6293 26.9445 34.6593 27.0072C34.7138 27.1209 35.9626 29.7758 35.4442 32.7989C35.9098 32.966 37.0504 33.4611 37.6651 34.4706C38.1497 34.1641 39.2525 33.6718 40.5598 34.4255C41.109 34.7421 41.479 35.3348 41.6016 36.0945C41.7928 37.279 41.339 38.6099 40.4175 39.5676C39.6804 40.3336 38.5997 40.7729 37.4526 40.7729Z" fill="#000072"/>
<path d="M13.5599 34.6377C13.5871 34.6544 13.5998 34.6635 13.6185 34.6759C13.6362 34.6877 13.6506 34.699 13.6668 34.7107C13.6989 34.734 13.7261 34.7585 13.7553 34.7828C13.7851 34.8066 13.8097 34.8329 13.8365 34.8583C13.8635 34.8835 13.8888 34.9097 13.9125 34.9365C14.0112 35.0427 14.0942 35.157 14.1682 35.275C14.3165 35.5112 14.415 35.7658 14.4835 36.0221C14.5503 36.2795 14.575 36.5409 14.575 36.7989C14.5755 36.9279 14.5595 37.0565 14.5497 37.1836C14.5283 37.3105 14.505 37.4364 14.4754 37.5605C14.4697 37.5842 14.4437 37.5993 14.4173 37.5942C14.3973 37.5904 14.3827 37.576 14.3794 37.5589L14.3788 37.5558C14.3545 37.4312 14.3394 37.3083 14.3212 37.1865L14.2857 37.0052C14.2727 36.9452 14.2678 36.8847 14.2501 36.8259C14.2168 36.7082 14.199 36.5892 14.157 36.4754C14.1387 36.4182 14.1243 36.3602 14.1044 36.3039L14.0405 36.1367C13.9524 35.9161 13.8448 35.7051 13.7151 35.5101C13.6813 35.4623 13.6497 35.4128 13.613 35.3675L13.56 35.2981L13.5031 35.2321C13.467 35.1866 13.4252 35.1465 13.386 35.1055C13.3658 35.086 13.3458 35.0648 13.3254 35.0474C13.3156 35.0385 13.3052 35.028 13.2959 35.0202C13.2877 35.0131 13.2742 35.0017 13.2733 35.0001L13.2198 34.9038C13.1624 34.8004 13.2093 34.6749 13.3246 34.6234C13.4027 34.5885 13.4925 34.5968 13.5599 34.6377Z" fill="#000072"/>
<path d="M37.7139 34.9991C37.7129 35.0008 37.6994 35.0121 37.6912 35.0193C37.682 35.027 37.6715 35.0376 37.6617 35.0465C37.6413 35.0638 37.6213 35.085 37.6011 35.1045C37.5619 35.1456 37.5201 35.1856 37.484 35.2311L37.4272 35.2971L37.3741 35.3666C37.3374 35.4119 37.3058 35.4613 37.272 35.5091C37.1423 35.7041 37.0347 35.9151 36.9466 36.1357L36.8827 36.3029C36.8628 36.3592 36.8485 36.4172 36.8302 36.4745C36.7882 36.5882 36.7703 36.7072 36.7371 36.8249C36.7193 36.8837 36.7144 36.9443 36.7015 37.0042L36.666 37.1855C36.6477 37.3073 36.6326 37.4302 36.6083 37.5549L36.6077 37.5579C36.6031 37.5818 36.5778 37.5977 36.5512 37.5936C36.5309 37.5904 36.5158 37.5765 36.5117 37.5596C36.4821 37.4355 36.4588 37.3096 36.4374 37.1826C36.4277 37.0555 36.4116 36.9269 36.4121 36.798C36.4122 36.5399 36.4368 36.2786 36.5036 36.0211C36.5721 35.7648 36.6706 35.5102 36.8189 35.2741C36.8929 35.156 36.9759 35.0417 37.0746 34.9356C37.0983 34.9087 37.1237 34.8826 37.1506 34.8573C37.1774 34.8319 37.202 34.8056 37.2318 34.7818C37.261 34.7576 37.2882 34.733 37.3204 34.7097C37.3366 34.698 37.3509 34.6868 37.3686 34.675C37.3874 34.6626 37.4 34.6534 37.4272 34.6368C37.5337 34.5717 37.6787 34.5964 37.7513 34.6918C37.8004 34.7565 37.8036 34.8371 37.7675 34.9026L37.7139 34.9991Z" fill="#000072"/>
<path d="M16.079 32.9176L16.0991 33.0951L16.1244 33.2936C16.1332 33.3613 16.1451 33.4292 16.1516 33.5004C16.1588 33.5714 16.1631 33.6451 16.1591 33.7246L16.1591 33.7249C16.1585 33.7374 16.1467 33.7471 16.1327 33.7466C16.1277 33.7463 16.1231 33.7449 16.1193 33.7424C16.0466 33.6965 15.9839 33.6438 15.9297 33.5863C15.8742 33.5293 15.8288 33.467 15.7845 33.4032C15.7412 33.3389 15.7018 33.2722 15.6675 33.2022C15.6514 33.167 15.6346 33.1315 15.6216 33.0941C15.6146 33.0756 15.6083 33.0565 15.6026 33.0369C15.5965 33.0158 15.5924 33.0003 15.5871 32.9704C15.5656 32.8491 15.6578 32.7352 15.793 32.716C15.9281 32.6967 16.0552 32.7794 16.0766 32.9006C16.0773 32.9045 16.0779 32.9084 16.0783 32.9122L16.079 32.9176Z" fill="#000072"/>
<path d="M35.4173 32.9704C35.412 33.0003 35.4079 33.0158 35.4018 33.0369C35.3961 33.0565 35.3898 33.0756 35.3828 33.0941C35.3698 33.1315 35.3531 33.167 35.3369 33.2023C35.3026 33.2722 35.2632 33.339 35.2199 33.4032C35.1756 33.467 35.1302 33.5293 35.0747 33.5863C35.0205 33.6438 34.9579 33.6965 34.8851 33.7424C34.8737 33.7497 34.8579 33.7472 34.8499 33.737C34.847 33.7333 34.8455 33.7291 34.8453 33.7249L34.8453 33.7246C34.8413 33.6451 34.8456 33.5715 34.8529 33.5004C34.8594 33.4292 34.8712 33.3613 34.8801 33.2937L34.9053 33.0951L34.9255 32.9176L34.926 32.9129C34.9399 32.7908 35.0615 32.7019 35.1977 32.7144C35.3339 32.7268 35.433 32.8359 35.4191 32.958C35.4187 32.9619 35.418 32.9665 35.4173 32.9704Z" fill="#000072"/>
<path d="M17.2775 35.1194C17.2775 35.1194 16.1436 34.3308 15.8297 32.944C15.8297 32.944 15.1774 32.6484 14.7266 33.4484C14.7266 33.4484 15.2466 35.8907 17.7774 37.0742C17.7774 37.0742 17.4117 35.8169 17.2775 35.1194Z" fill="#0096F2"/>
<path d="M14.9883 33.4802C15.0904 33.8532 15.6404 35.5561 17.3909 36.6106C17.2801 36.2075 17.1333 35.6506 17.0492 35.2383C16.7866 35.0342 15.9319 34.2959 15.6179 33.1154C15.4754 33.0934 15.2187 33.1191 14.9883 33.4802ZM17.777 37.2964C17.7379 37.2964 17.6986 37.2881 17.6625 37.2712C15.0555 36.052 14.5051 33.5941 14.4829 33.4901C14.4727 33.4419 14.4805 33.3921 14.5052 33.3483C14.7868 32.8485 15.155 32.7069 15.4143 32.6761C15.7013 32.6417 15.9174 32.7351 15.9411 32.7459C16.0088 32.7765 16.0571 32.8333 16.0721 32.8999C16.3628 34.1841 17.4187 34.9367 17.4293 34.9442C17.4777 34.9781 17.5108 35.0273 17.5212 35.0817C17.6521 35.7619 18.0131 37.0057 18.0167 37.0182C18.0414 37.1032 18.0079 37.1933 17.9313 37.248C17.8866 37.28 17.832 37.2964 17.777 37.2964Z" fill="#000072"/>
<path d="M33.7264 35.1194C33.7264 35.1194 34.8603 34.3308 35.1742 32.944C35.1742 32.944 35.8265 32.6484 36.2774 33.4484C36.2774 33.4484 35.7573 35.8907 33.2266 37.0742C33.2266 37.0742 33.5923 35.8169 33.7264 35.1194Z" fill="#0096F2"/>
<path d="M33.9521 35.2383C33.8679 35.6506 33.7211 36.2075 33.6103 36.6106C35.3608 35.5562 35.9108 33.8534 36.013 33.4802C35.8735 33.2609 35.7085 33.1386 35.5218 33.1165C35.4695 33.1102 35.4215 33.1129 35.3825 33.1184C35.0679 34.2972 34.2145 35.0343 33.9521 35.2383ZM33.2243 37.2964C33.1693 37.2964 33.1147 37.28 33.07 37.248C32.9933 37.1933 32.9599 37.1031 32.9846 37.0182C32.9882 37.0057 33.3492 35.7619 33.48 35.0817C33.4905 35.0271 33.5233 34.9781 33.572 34.9442C33.5826 34.9367 34.6385 34.1841 34.9291 32.8999C34.9442 32.8333 34.9925 32.7765 35.0602 32.7459C35.0838 32.7351 35.2999 32.6417 35.5869 32.6761C35.8462 32.7069 36.2145 32.8485 36.4961 33.3483C36.5208 33.3921 36.5286 33.4419 36.5184 33.4901C36.4962 33.5941 35.9458 36.052 33.3388 37.2712C33.3027 37.2881 33.2634 37.2964 33.2243 37.2964Z" fill="#000072"/>
<path d="M20.6953 29.4453C20.6953 29.4453 21.121 30.5276 20.9985 32.1066L22.4013 33.2012C22.4013 33.2012 22.7678 31.2935 22.1435 29.7091L20.6953 29.4453Z" fill="#0096F2"/>
<path d="M21.2491 32.0111L22.2083 32.7596C22.2732 32.1508 22.3286 30.9573 21.95 29.9014L21.039 29.7354C21.1568 30.1747 21.3139 30.983 21.2491 32.0111ZM22.3969 33.4233C22.3381 33.4233 22.2801 33.4045 22.2343 33.3688L20.8316 32.2742C20.773 32.2285 20.7417 32.1607 20.7471 32.0913C20.8642 30.5824 20.4614 29.5295 20.4573 29.519C20.4278 29.4436 20.4458 29.3597 20.5044 29.2995C20.563 29.2393 20.6532 29.2122 20.7403 29.2277L22.1884 29.4914C22.2737 29.507 22.3437 29.5615 22.3726 29.6351C23.0112 31.2555 22.6564 33.1587 22.641 33.2389C22.6258 33.318 22.5643 33.3835 22.48 33.4104C22.4529 33.4191 22.4248 33.4233 22.3969 33.4233Z" fill="#000072"/>
<path d="M30.307 29.4453C30.307 29.4453 29.8813 30.5276 30.0038 32.1066L28.6011 33.2012C28.6011 33.2012 28.2345 31.2935 28.8588 29.7091L30.307 29.4453Z" fill="#0096F2"/>
<path d="M29.0492 29.9014C28.6699 30.9592 28.7254 32.1517 28.7906 32.7597L29.7501 32.0111C29.6853 30.9829 29.8424 30.1747 29.9601 29.7354L29.0492 29.9014ZM28.6023 33.4233C28.5744 33.4233 28.5463 33.4191 28.5192 33.4104C28.4349 33.3835 28.3734 33.318 28.3582 33.2389C28.3428 33.1587 27.988 31.2555 28.6265 29.6351C28.6555 29.5615 28.7255 29.507 28.8108 29.4914L30.2589 29.2277C30.3463 29.2115 30.4366 29.2393 30.4951 29.2996C30.5536 29.3599 30.5714 29.4438 30.5419 29.5192C30.5354 29.5358 30.1354 30.5869 30.2521 32.0913C30.2575 32.1607 30.2262 32.2285 30.1676 32.2742L28.7649 33.3688C28.7191 33.4045 28.6611 33.4233 28.6023 33.4233Z" fill="#000072"/>
<path d="M24.1011 39.8568C23.7481 41.4113 21.7361 42.1226 20.3221 41.1698C19.2154 40.4246 18 38.7201 17.2491 34.9826C17.1776 34.6244 17.1098 34.247 17.0469 33.8504L17.5249 33.4441L20.6936 30.7491C20.6936 30.7491 23.8153 35.0832 24.1611 38.4055V38.4062C24.2154 38.9207 24.2025 39.4109 24.1011 39.8568Z" fill="#B11313"/>
<g opacity="0.300003">
<g opacity="0.300003">
<path opacity="0.300003" d="M24.1002 39.8568C23.7472 41.4113 21.7352 42.1226 20.3212 41.1698C19.2145 40.4246 17.9991 38.7201 17.2482 34.9826C16.1915 34.4117 15.8285 32.9437 15.8285 32.9437C15.3726 30.9945 15.8985 29.1978 15.8985 29.1978C15.7984 31.5703 16.8485 32.7021 17.2816 33.0654C17.4023 33.1666 17.4866 33.2972 17.5234 33.4417C17.5236 33.4425 17.5238 33.4433 17.524 33.4441C18.2978 36.5146 19.5939 40.2554 21.4744 40.5232C23.2899 40.7815 24.0723 38.6606 24.1602 38.4062C24.2145 38.9207 24.2016 39.4109 24.1002 39.8568Z" fill="#000072"/>
</g>
</g>
<path d="M20.9664 30.542C21.3272 30.8944 21.6125 31.2875 21.8712 31.6936C21.9996 31.8971 22.1167 32.1059 22.233 32.3151C22.3494 32.5242 22.4633 32.7345 22.5744 32.9461C23.0191 33.792 23.424 34.6571 23.7603 35.5484C24.097 36.4387 24.3681 37.3586 24.4669 38.3163C24.5145 38.7944 24.5174 39.2836 24.4268 39.7733C24.4072 39.8936 24.3785 40.0226 24.3344 40.1469C24.2944 40.272 24.2377 40.3928 24.1762 40.5111C24.048 40.7458 23.8771 40.9623 23.6733 41.1495C23.2616 41.5203 22.7175 41.7703 22.1399 41.8438C21.8518 41.8842 21.5559 41.8754 21.2688 41.8298C20.9819 41.7809 20.7049 41.6885 20.4516 41.5613C20.3277 41.4956 20.203 41.4233 20.0953 41.3437L19.9339 41.225C19.8793 41.1859 19.8325 41.1406 19.7816 41.0987C19.7324 41.0554 19.6801 41.0143 19.6337 40.969L19.4956 40.8326C19.4002 40.7436 19.3212 40.6448 19.2356 40.5499C18.9049 40.1632 18.6412 39.7427 18.4097 39.3139C18.1744 38.8855 17.9945 38.44 17.8203 37.9947C17.6586 37.546 17.5113 37.0942 17.3902 36.6378C17.3303 36.4095 17.266 36.1821 17.2171 35.9521C17.1668 35.7224 17.1065 35.4943 17.0699 35.2627C16.9889 34.8006 16.9509 34.3322 16.9955 33.8571C16.998 33.8302 17.0243 33.8103 17.0543 33.8125C17.0751 33.8141 17.0923 33.8261 17.0999 33.8423L17.1005 33.8437C17.2035 34.0645 17.2814 34.2872 17.3486 34.5112C17.4147 34.7354 17.4833 34.9581 17.5352 35.1835C17.5849 35.4095 17.6432 35.6332 17.698 35.8577C17.75 36.083 17.8171 36.3043 17.8797 36.5268C18.0063 36.9713 18.1577 37.4085 18.3219 37.8403C18.498 38.2673 18.6789 38.6937 18.9089 39.0949C19.1342 39.4977 19.3912 39.8842 19.6932 40.2323C19.7712 40.317 19.8436 40.407 19.9289 40.4845L20.0525 40.6049C20.0938 40.6449 20.1398 40.6796 20.1831 40.7173C20.2278 40.7534 20.2692 40.7936 20.3164 40.8264L20.4558 40.9273C20.5483 40.9948 20.6427 41.0471 20.7413 41.0993C20.9404 41.1969 21.1549 41.2666 21.3766 41.3029C21.5986 41.336 21.827 41.3422 22.0501 41.3087C22.4978 41.2494 22.919 41.0497 23.2354 40.7623C23.393 40.6178 23.5253 40.4513 23.6253 40.2698C23.6727 40.178 23.7179 40.0847 23.749 39.9866C23.7839 39.8898 23.8063 39.7908 23.8243 39.6816C23.9046 39.2556 23.9054 38.8094 23.8621 38.3645C23.8182 37.9189 23.73 37.4729 23.6158 37.0308C23.5023 36.5883 23.3604 36.1495 23.2025 35.7148C22.886 34.845 22.4992 33.9921 22.0716 33.1558C21.9648 32.9465 21.8551 32.7384 21.7431 32.5313C21.6315 32.324 21.5141 32.1193 21.4053 31.9105C21.1856 31.494 20.9787 31.0706 20.8154 30.623L20.8149 30.6215C20.7995 30.5792 20.8252 30.5337 20.8723 30.5199C20.9069 30.5098 20.9433 30.5195 20.9664 30.542Z" fill="#000072"/>
<path d="M17.9431 37.793C17.8764 37.793 17.8098 37.769 17.761 37.7216C17.6683 37.6315 17.6744 37.4911 17.7748 37.4079C17.8667 37.3317 20.0637 35.5393 23.4275 35.3138C23.5635 35.3039 23.6827 35.3964 23.6929 35.5187C23.7031 35.641 23.6008 35.7477 23.4644 35.7568C20.2791 35.9704 18.1323 37.7166 18.111 37.7341C18.0634 37.7735 18.0031 37.793 17.9431 37.793Z" fill="#000072"/>
<path d="M26.9002 39.8573C27.2532 41.4118 29.2652 42.1231 30.6792 41.1703C31.786 40.425 33.0013 38.7206 33.7522 34.9831C33.8237 34.6249 33.8916 34.2475 33.9544 33.8508L33.4764 33.4446L30.3077 30.7496C30.3077 30.7496 27.186 35.0837 26.8402 38.406V38.4067C26.7859 38.9212 26.7988 39.4114 26.9002 39.8573Z" fill="#B11313"/>
<g opacity="0.300003">
<g opacity="0.300003">
<path opacity="0.300003" d="M26.8924 39.8568C27.2454 41.4113 29.2574 42.1226 30.6714 41.1698C31.7781 40.4246 32.9935 38.7201 33.7444 34.9826C34.8012 34.4117 35.1641 32.9437 35.1641 32.9437C35.62 30.9945 35.0941 29.1978 35.0941 29.1978C35.1942 31.5703 34.1441 32.7021 33.711 33.0654C33.5904 33.1666 33.506 33.2972 33.4693 33.4417C33.469 33.4425 33.4688 33.4433 33.4686 33.4441C32.6948 36.5146 31.3987 40.2554 29.5182 40.5232C27.7027 40.7815 26.9203 38.6606 26.8324 38.4062C26.7781 38.9207 26.791 39.4109 26.8924 39.8568Z" fill="#000072"/>
</g>
</g>
<path d="M30.1861 30.623C30.0229 31.0706 29.8159 31.494 29.5962 31.9105C29.4875 32.1193 29.37 32.324 29.2585 32.5314C29.1464 32.7384 29.0367 32.9465 28.93 33.1557C28.5024 33.9921 28.1156 34.845 27.7991 35.7148C27.6411 36.1495 27.4993 36.5883 27.3858 37.0308C27.2716 37.4729 27.1834 37.9189 27.1395 38.3645C27.0962 38.8094 27.097 39.2556 27.1773 39.6816C27.1953 39.7908 27.2176 39.8898 27.2526 39.9866C27.2837 40.0846 27.3289 40.178 27.3762 40.2698C27.4763 40.4513 27.6086 40.6178 27.7662 40.7623C28.0826 41.0497 28.5038 41.2493 28.9515 41.3087C29.1746 41.3422 29.403 41.336 29.625 41.3029C29.8467 41.2666 30.0612 41.1969 30.2603 41.0993C30.3589 41.0471 30.4533 40.9948 30.5457 40.9272L30.6852 40.8264C30.7324 40.7936 30.7738 40.7534 30.8185 40.7173C30.8618 40.6796 30.9078 40.6449 30.9491 40.6049L31.0727 40.4845C31.158 40.407 31.2303 40.317 31.3084 40.2323C31.6104 39.8842 31.8674 39.4976 32.0927 39.0949C32.3227 38.6937 32.5036 38.2673 32.6797 37.8403C32.8439 37.4084 32.9953 36.9713 33.1219 36.5268C33.1845 36.3043 33.2515 36.083 33.3036 35.8577C33.3584 35.6332 33.4166 35.4095 33.4663 35.1835C33.5183 34.9581 33.5868 34.7354 33.653 34.5112C33.7202 34.2872 33.7981 34.0644 33.9011 33.8437L33.9017 33.8423C33.9133 33.8175 33.9452 33.8057 33.9729 33.8161C33.9922 33.8234 34.0044 33.8396 34.0061 33.8571C34.0507 34.3322 34.0127 34.8006 33.9316 35.2627C33.895 35.4943 33.8347 35.7224 33.7844 35.9521C33.7356 36.1821 33.6713 36.4095 33.6114 36.6378C33.4903 37.0942 33.343 37.546 33.1813 37.9947C33.0071 38.44 32.8272 38.8855 32.5919 39.3139C32.3604 39.7427 32.0966 40.1632 31.766 40.5499C31.6804 40.6448 31.6013 40.7436 31.506 40.8326L31.3678 40.969C31.3215 41.0143 31.2692 41.0554 31.22 41.0987C31.169 41.1406 31.1222 41.1859 31.0677 41.2249L30.9063 41.3437C30.7986 41.4233 30.6739 41.4956 30.5499 41.5613C30.2967 41.6885 30.0196 41.7809 29.7327 41.8298C29.4456 41.8754 29.1498 41.8842 28.8617 41.8438C28.2841 41.7703 27.74 41.5203 27.3282 41.1495C27.1245 40.9623 26.9536 40.7458 26.8253 40.5111C26.7639 40.3928 26.7071 40.272 26.6671 40.1469C26.623 40.0226 26.5944 39.8935 26.5748 39.7733C26.4842 39.2836 26.4871 38.7944 26.5346 38.3163C26.6335 37.3586 26.9046 36.4387 27.2412 35.5484C27.5776 34.6571 27.9825 33.792 28.4272 32.9461C28.5382 32.7345 28.6522 32.5242 28.7685 32.3151C28.8849 32.1059 29.002 31.8971 29.1304 31.6936C29.3891 31.2875 29.6743 30.8944 30.0351 30.542C30.0687 30.5092 30.1255 30.507 30.162 30.5371C30.1888 30.5592 30.1973 30.5924 30.1867 30.6214L30.1861 30.623Z" fill="#000072"/>
<path d="M33.0592 37.793C32.9991 37.793 32.9388 37.7735 32.8912 37.734C32.8699 37.7164 30.7231 35.9702 27.5378 35.7567C27.4014 35.7475 27.2991 35.6409 27.3093 35.5186C27.3195 35.3962 27.4385 35.3039 27.5747 35.3136C30.9385 35.5392 33.1355 37.3315 33.2274 37.4078C33.3278 37.491 33.334 37.6316 33.2411 37.7216C33.1923 37.769 33.1258 37.793 33.0592 37.793Z" fill="#000072"/>
<path d="M25.5041 28.6031C31.982 28.6031 34.5541 26.0653 34.5541 26.0653C34.5541 26.0653 34.662 26.2838 34.7145 26.5944C34.8015 27.1086 34.558 27.6245 34.0943 27.9369C33.075 28.6236 30.4796 29.9321 25.5007 29.9321C20.5219 29.9321 17.9264 28.6236 16.9072 27.9369C16.4435 27.6245 16.2 27.1086 16.287 26.5944C16.3395 26.2838 16.4474 26.0653 16.4474 26.0653C16.4474 26.0653 19.0195 28.6031 25.4974 28.6031" fill="#751313"/>
<g opacity="0.300003">
<g opacity="0.300003">
<path opacity="0.300003" d="M34.6928 26.4754C34.6094 26.7979 34.4008 27.091 34.0962 27.2961C33.077 27.9828 30.4816 29.2914 25.5027 29.2914C20.5238 29.2914 17.9284 27.9828 16.9091 27.2961C16.6046 27.091 16.3959 26.7979 16.3126 26.4754C16.304 26.5132 16.2959 26.5529 16.2889 26.5944C16.2019 27.1086 16.4454 27.6245 16.9091 27.9369C17.9284 28.6236 20.5238 29.9321 25.5027 29.9321C30.4816 29.9321 33.077 28.6236 34.0962 27.9369C34.5599 27.6245 34.8034 27.1086 34.7165 26.5944C34.7094 26.5529 34.7014 26.5132 34.6928 26.4754Z" fill="#000072"/>
</g>
</g>
<path d="M25.5005 30.1543C20.5283 30.1543 17.889 28.8763 16.7582 28.1145C16.2161 27.7492 15.9416 27.154 16.0419 26.5612C16.0987 26.2249 16.2158 25.9854 16.2207 25.9754C16.2547 25.9067 16.325 25.858 16.4076 25.8461C16.4902 25.8339 16.5741 25.8603 16.6305 25.9159C16.6553 25.9402 19.2231 28.381 25.4972 28.381V28.8253C20.1385 28.8253 17.4203 27.1301 16.565 26.4699C16.5527 26.5186 16.5412 26.5715 16.5316 26.6277C16.4587 27.0587 16.6596 27.4924 17.0558 27.7593C18.1371 28.4878 20.6722 29.71 25.5005 29.71C30.3289 29.71 32.864 28.4878 33.9454 27.7593C34.3415 27.4924 34.5423 27.0588 34.4694 26.6277C34.4599 26.5715 34.4484 26.5186 34.436 26.4699C33.5808 27.1301 30.8625 28.8253 25.5039 28.8253V28.381C31.7993 28.381 34.3456 25.9405 34.3706 25.9159C34.4269 25.8603 34.5108 25.834 34.5934 25.8461C34.6761 25.858 34.7464 25.9067 34.7803 25.9754C34.7853 25.9854 34.9024 26.2249 34.9592 26.5612C35.0595 27.154 34.785 27.7493 34.2429 28.1145C33.1122 28.8763 30.4728 30.1543 25.5005 30.1543Z" fill="#000072"/>
<path d="M16.457 27.9443L20.4511 36.0981" stroke="#000072" stroke-width="0.2" stroke-miterlimit="10"/>
<path d="M30.3848 36.0981L34.4636 27.9443" stroke="#000072" stroke-width="0.2" stroke-miterlimit="10"/>
<path fill-rule="evenodd" clip-rule="evenodd" d="M25.2077 31.2737C25.2061 31.2933 25.1928 31.3109 25.1839 31.3302C25.1754 31.3489 25.1675 31.369 25.1601 31.3886C25.1408 31.4398 25.1228 31.4902 25.1244 31.5565C25.1903 31.5643 25.2733 31.5585 25.3327 31.551C25.3652 31.5639 25.3861 31.584 25.4161 31.5984C25.4104 31.5737 25.4375 31.569 25.4607 31.5619C25.4504 31.5726 25.4344 31.5799 25.4399 31.6003C25.4534 31.6058 25.4556 31.5911 25.4667 31.5893C25.482 31.6 25.5014 31.5994 25.5173 31.5893C25.5286 31.5908 25.5256 31.6013 25.5381 31.6021C25.5557 31.5879 25.5305 31.5725 25.5232 31.5619C25.5453 31.5691 25.5704 31.5744 25.5679 31.5966C25.5919 31.5876 25.6212 31.5661 25.6452 31.551C25.7072 31.559 25.7865 31.5627 25.8595 31.5583C25.857 31.4473 25.8131 31.3617 25.7702 31.2755C25.7821 31.2746 25.782 31.2842 25.7851 31.2883C25.8294 31.347 25.8688 31.414 25.9012 31.4853C25.9059 31.4957 25.9138 31.5098 25.919 31.5236C25.9236 31.5358 25.9332 31.5569 25.9309 31.5638C25.9258 31.5787 25.8855 31.5838 25.8773 31.5966C25.8526 31.5787 25.7812 31.5838 25.7137 31.582C25.6945 31.5815 25.6689 31.5781 25.6571 31.5802C25.6312 31.5847 25.6198 31.608 25.6065 31.6203C25.6432 31.6219 25.6722 31.6001 25.7047 31.5984C25.7254 31.5974 25.7556 31.6069 25.7821 31.6112C25.8588 31.6237 25.9444 31.6342 26.0143 31.6477C26.0185 31.501 25.957 31.3787 25.8744 31.2791C25.9565 31.3486 26.0118 31.4299 26.0529 31.5254C26.06 31.542 26.0662 31.5577 26.0708 31.5747C26.0773 31.5986 26.0776 31.6281 26.0976 31.6459C26.0729 31.6624 26.0432 31.6758 26.0172 31.6915C25.9441 31.6647 25.8028 31.6262 25.6839 31.6331C25.6554 31.6348 25.6303 31.6435 25.6095 31.655C25.6458 31.6639 25.671 31.6647 25.7196 31.6641C25.7317 31.664 25.7492 31.6609 25.7583 31.6623C25.7686 31.6639 25.7852 31.677 25.8 31.686C25.8859 31.7387 25.9628 31.7773 26.0648 31.8192C26.0967 31.8323 26.1147 31.8456 26.1511 31.8283C26.1572 32.0015 26.0822 32.1293 25.9904 32.2461C25.9797 32.2598 25.973 32.2756 25.9547 32.2863C26.0237 32.1865 26.0767 32.0678 26.0767 31.9287C26.0767 31.9141 26.0813 31.8959 26.0767 31.8831C26.0703 31.8648 26.0235 31.8455 25.9964 31.8302C25.9195 31.7866 25.8583 31.7561 25.7732 31.7152C25.7565 31.7072 25.7423 31.6964 25.7286 31.6933C25.714 31.6901 25.6912 31.6894 25.675 31.6878C25.6547 31.6859 25.6352 31.6853 25.6184 31.6842C25.6513 31.7059 25.7035 31.7327 25.7494 31.7535C25.7577 31.7581 25.7665 31.7519 25.7762 31.7517C25.787 31.9551 25.7624 32.1543 25.669 32.3027C25.6467 32.3381 25.622 32.3729 25.5827 32.3994C25.7096 32.259 25.7192 32.0178 25.6928 31.8064C25.7198 31.7921 25.7081 31.7802 25.6839 31.7626C25.6575 31.7435 25.6105 31.7155 25.5798 31.7061C25.5776 31.7156 25.5829 31.7249 25.5887 31.7335C25.5945 31.742 25.6074 31.7495 25.6095 31.7572C25.614 31.7735 25.6032 31.8093 25.5976 31.8283C25.5792 31.8913 25.5404 31.9604 25.5053 32.0071C25.493 32.0062 25.5017 31.9924 25.4934 31.9889C25.4802 31.9893 25.4882 32.0027 25.4815 32.0071C25.4406 31.9643 25.4056 31.8933 25.3863 31.8283C25.3794 31.8051 25.3687 31.7771 25.3744 31.7572C25.3789 31.7413 25.4068 31.7269 25.4042 31.7079C25.3769 31.7117 25.3515 31.7284 25.3298 31.7426C25.3081 31.7567 25.2856 31.772 25.2703 31.7882C25.2721 31.7962 25.2848 31.7975 25.2881 31.8046C25.2686 32.0185 25.2692 32.2592 25.4012 32.3976C25.3873 32.3964 25.3808 32.3856 25.3744 32.3793C25.2515 32.2589 25.2185 32.0731 25.2048 31.8812C25.2017 31.8388 25.1986 31.7974 25.2077 31.7554C25.2103 31.7465 25.2256 31.7596 25.2345 31.7535C25.2815 31.7318 25.3238 31.7073 25.3685 31.6842C25.3296 31.6879 25.2873 31.6867 25.2524 31.6951C25.2221 31.7025 25.1889 31.7228 25.1601 31.7371C25.0728 31.7807 24.9807 31.8281 24.9072 31.8776C24.8922 32.0404 24.953 32.1716 25.0262 32.2863C24.9206 32.16 24.8225 32.0196 24.8328 31.8283C24.873 31.8517 24.9343 31.8136 24.9667 31.7991C25.0568 31.7587 25.153 31.7066 25.2226 31.6623C25.273 31.6669 25.3322 31.6632 25.3744 31.6568C25.3218 31.6157 25.187 31.6363 25.1066 31.6513C25.0526 31.6614 25.0022 31.6759 24.9697 31.6915C24.9388 31.6788 24.9151 31.6617 24.8863 31.6477C24.9074 31.6152 24.9119 31.5607 24.928 31.5236C24.9673 31.433 25.0287 31.3528 25.1036 31.2791C25.1016 31.2931 25.0858 31.3052 25.0768 31.3174C25.0116 31.4064 24.9686 31.5166 24.9667 31.6459C25.0355 31.6363 25.1176 31.6245 25.1988 31.6112C25.2253 31.6069 25.2527 31.598 25.2732 31.5984C25.3063 31.5991 25.3374 31.6201 25.3744 31.6203C25.3656 31.6032 25.3488 31.591 25.3298 31.5802C25.2685 31.5845 25.2 31.5777 25.1453 31.5838C25.1397 31.5845 25.1324 31.5865 25.1244 31.5893C25.1251 31.5891 25.1067 31.5966 25.1095 31.5966C25.0972 31.5965 25.0669 31.5702 25.053 31.5674C25.0816 31.4554 25.1461 31.3654 25.2077 31.2737Z" fill="#000072"/>
<path fill-rule="evenodd" clip-rule="evenodd" d="M25.502 30.1552V33.3057V30.1552Z" fill="#000072"/>
<path d="M25.502 30.1552V33.3057" stroke="#000072" stroke-width="0.2" stroke-miterlimit="10"/>
<path d="M24.4042 30.1331C24.4042 30.1331 24.5973 32.714 24.3145 33.1709" stroke="#000072" stroke-width="0.2" stroke-miterlimit="10"/>
<path d="M23.5376 30.0836C23.5376 30.0836 23.973 31.2777 23.3438 32.8906" stroke="#000072" stroke-width="0.2" stroke-miterlimit="10"/>
<path d="M26.5016 30.1544C26.5016 30.1544 26.2997 32.4411 26.5917 33.2197" stroke="#000072" stroke-width="0.2" stroke-miterlimit="10"/>
<path d="M27.531 30.0836C27.531 30.0836 27.0693 32.3512 27.7548 32.8906" stroke="#000072" stroke-width="0.2" stroke-miterlimit="10"/>
<path d="M22.6367 30.5371C22.6367 30.5371 23.0715 30.1649 23.6426 30.5371C23.6426 30.5371 23.9403 30.1677 24.4353 30.5879C24.4353 30.5879 24.7052 30.1278 25.4998 30.5371C25.4998 30.5371 25.8352 30.1525 26.4368 30.5371C26.4368 30.5371 26.9095 30.1101 27.4632 30.5159C27.4632 30.5159 27.9568 30.034 28.3842 30.4644" stroke="#000072" stroke-width="0.2" stroke-miterlimit="10"/>
<path d="M25.4377 31.1281C25.4221 31.1182 25.4067 31.1089 25.3914 31.1001C24.8502 30.789 24.4575 31.1367 24.4575 31.1367C24.056 30.763 23.6837 31.1367 23.6837 31.1367C23.0596 30.4838 22.7227 31.1367 22.7227 31.1367" stroke="#000072" stroke-width="0.2" stroke-miterlimit="10"/>
<path d="M25.4219 31.1352C25.4219 31.1352 25.9152 30.7804 26.4342 31.1352C26.4342 31.1352 26.9384 30.6961 27.3799 31.1548C27.3799 31.1548 28.0352 30.7025 28.2796 31.1456" stroke="#000072" stroke-width="0.2" stroke-miterlimit="10"/>
<path d="M22.7227 32.2273C22.7227 32.2273 23.1231 31.6357 23.5445 32.2775C23.5445 32.2775 24.3002 31.8093 24.461 32.4632C24.461 32.4632 25.0868 32.1779 25.5242 32.6475C25.5242 32.6475 25.9876 32.1614 26.5244 32.5321C26.5244 32.5321 26.8828 31.7887 27.4894 32.3623C27.4894 32.3623 27.8631 31.7424 28.2798 32.096" stroke="#000072" stroke-width="0.2" stroke-miterlimit="10"/>
<path d="M22.6836 32.5817C22.6836 32.5817 23.205 32.1074 23.4331 32.6482C23.4331 32.6482 24.1841 32.3436 24.3938 32.8913C24.3938 32.8913 25.1699 32.5263 25.493 33.1104C25.493 33.1104 25.9522 32.7223 26.5043 32.9859C26.5043 32.9859 27.0116 32.3015 27.5989 32.7055C27.5989 32.7055 28.0168 32.0654 28.2668 32.4639" stroke="#000072" stroke-width="0.2" stroke-miterlimit="10"/>
<path d="M18.1094 37.7336C18.1094 37.7336 20.4205 35.5549 23.3417 35.7652L24.0057 37.5944C24.0057 37.5944 23.288 40.3102 18.763 39.3951L18.1094 37.7336Z" fill="#000072"/>
<path d="M18.1094 37.7336C18.1094 37.7336 20.4205 35.5549 23.3417 35.7652L24.0057 37.5944C24.0057 37.5944 23.288 40.3102 18.763 39.3951L18.1094 37.7336Z" stroke="#000072" stroke-width="0.2" stroke-miterlimit="10"/>
<path d="M26.8906 38.0441L27.5711 35.4492L30.778 36.3235L32.6887 37.2964V38.0441L32.24 39.3953C32.24 39.3953 29.0295 40.3431 26.8906 38.0441Z" fill="#000072"/>
<path d="M26.8906 38.0441L27.5711 35.4492L30.778 36.3235L32.6887 37.2964V38.0441L32.24 39.3953C32.24 39.3953 29.0295 40.3431 26.8906 38.0441Z" stroke="#000072" stroke-width="0.2" stroke-miterlimit="10"/>
<path d="M10.6602 34.5885L13.1289 40.3291" stroke="#000072" stroke-width="0.2" stroke-miterlimit="10"/>
<path d="M10.0195 35.3125C10.0195 35.3125 10.4461 37.9698 12.3083 40.2852" stroke="#000072" stroke-width="0.2" stroke-miterlimit="10"/>
<path d="M11.6621 34.3671C11.6621 34.3671 13.5904 37.3029 13.8883 40.375" stroke="#000072" stroke-width="0.2" stroke-miterlimit="10"/>
<path d="M12.8984 34.5885C12.8984 34.5885 14.0679 36.6792 14.7272 40.3291" stroke="#000072" stroke-width="0.2" stroke-miterlimit="10"/>
<path d="M9.75781 36.5527C9.75781 36.5527 9.76269 35.9648 10.2287 36.1927C10.2287 36.1927 10.4022 35.1645 11.164 35.8173C11.164 35.8173 11.1928 34.7734 12.2575 35.3993C12.2575 35.3993 12.5611 34.6333 13.1988 35.3128C13.1988 35.3128 13.5151 35.156 13.7186 35.5095" stroke="#000072" stroke-width="0.2" stroke-miterlimit="10"/>
<path d="M10.0898 35.6719C10.0898 35.6719 10.2533 34.9115 10.904 35.1634C10.904 35.1634 11.0328 34.5384 11.8908 34.7462C11.8908 34.7462 12.0171 34.3374 13.0352 34.8599" stroke="#000072" stroke-width="0.2" stroke-miterlimit="10"/>
<path d="M9.84766 36.8657C9.84766 36.8657 9.88358 36.2765 10.3806 36.6864C10.3806 36.6864 10.5372 35.6663 11.4056 36.3237C11.4056 36.3237 11.4289 35.3248 12.4393 35.8893C12.4393 35.8893 12.8111 35.3315 13.4591 35.8175C13.4591 35.8175 13.5748 35.5272 13.8982 35.8175" stroke="#000072" stroke-width="0.2" stroke-miterlimit="10"/>
<path d="M9.84766 37.3711C9.84766 37.3711 10.0494 36.8045 10.6013 37.2964C10.6013 37.2964 10.9391 36.3712 11.6617 36.9973C11.6617 36.9973 11.9528 35.7624 12.8391 36.6106C12.8391 36.6106 12.977 35.8042 13.6819 36.4008C13.6819 36.4008 13.7354 35.9057 14.1071 36.3032" stroke="#000072" stroke-width="0.2" stroke-miterlimit="10"/>
<path d="M10.0195 37.7993C10.0195 37.7993 10.2072 37.3326 10.7541 37.6676C10.7541 37.6676 11.3487 36.931 11.8944 37.4586C11.8944 37.4586 12.48 36.6657 13.0388 37.2683C13.0388 37.2683 13.3295 36.5243 13.9041 37.0422C13.9041 37.0422 14.1171 36.7648 14.2891 37.0048" stroke="#000072" stroke-width="0.2" stroke-miterlimit="10"/>
<path d="M10.2148 38.3486C10.2148 38.3486 10.5454 37.8402 10.968 38.1439C10.968 38.1439 11.3384 37.5645 12.1454 38.0472C12.1454 38.0472 12.5294 37.2628 13.3196 37.8551C13.3196 37.8551 13.6054 37.1877 14.1057 37.7929C14.1057 37.7929 14.1076 37.1452 14.4578 37.4586" stroke="#000072" stroke-width="0.2" stroke-miterlimit="10"/>
<path d="M10.4609 38.9897V38.8266C10.4609 38.8266 10.6824 38.2319 11.2126 38.6199C11.2126 38.6199 11.7601 38.0572 12.3394 38.4913C12.3394 38.4913 12.9381 37.7886 13.4796 38.3488C13.4796 38.3488 13.8057 37.7346 14.29 38.3466" stroke="#000072" stroke-width="0.2" stroke-miterlimit="10"/>
<path d="M10.873 39.1895C10.873 39.1895 10.8936 38.873 11.4189 38.99C11.4189 38.99 11.9819 38.6075 12.5418 38.9641C12.5418 38.9641 12.9368 38.3358 13.6071 38.812C13.6071 38.812 14.0713 38.3224 14.3889 38.737" stroke="#000072" stroke-width="0.2" stroke-miterlimit="10"/>
<path d="M11.1641 39.5835C11.1641 39.5835 11.367 39.3067 11.7383 39.503C11.7383 39.503 12.2204 39.0836 12.7437 39.4327C12.7437 39.4327 13.1078 38.9378 13.7202 39.2939C13.7202 39.2939 14.1086 38.8427 14.4962 39.1886" stroke="#000072" stroke-width="0.2" stroke-miterlimit="10"/>
<path d="M11.5645 39.8643C11.5645 39.8643 11.6281 39.5712 11.9764 39.8514C11.9764 39.8514 12.3833 39.6171 12.8978 39.8643C12.8978 39.8643 13.4588 39.5489 13.8122 39.7972C13.8122 39.7972 14.2715 39.4877 14.5768 39.7831" stroke="#000072" stroke-width="0.2" stroke-miterlimit="10"/>
<path d="M12.1543 40.0688C12.1543 40.0688 12.4249 39.8141 13.0388 40.1191C13.0388 40.1191 13.3757 39.9347 13.6844 39.9997C13.7285 40.009 13.772 40.0234 13.8138 40.0441" stroke="#000072" stroke-width="0.2" stroke-miterlimit="10"/>
<path d="M13.8555 40.1211C13.8555 40.1211 14.1676 39.8762 14.6979 40.0448" stroke="#000072" stroke-width="0.2" stroke-miterlimit="10"/>
<path d="M14.4591 37.3727C14.366 37.5625 14.7274 40.5498 14.7274 40.5498H19.2354L19.1394 40.3287L18.1112 38.5697L17.4676 36.9174C16.0092 36.732 14.5776 33.6691 14.5776 33.6691L13.5625 34.6371L13.813 35.1636L14.2883 36.1487L14.4591 37.3727Z" fill="#000072"/>
<path d="M40.1598 34.4495L37.9531 40.3291" stroke="#000072" stroke-width="0.2" stroke-miterlimit="10"/>
<path d="M40.7476 35.167C40.7476 35.167 40.3553 38.9189 38.5137 40.4189" stroke="#000072" stroke-width="0.2" stroke-miterlimit="10"/>
<path d="M39.3077 34.4132C39.3077 34.4132 37.8132 37.6322 37.1035 40.3643" stroke="#000072" stroke-width="0.2" stroke-miterlimit="10"/>
<path d="M38.0641 34.695C38.0641 34.695 36.9764 36.5242 36.4121 40.7041" stroke="#000072" stroke-width="0.2" stroke-miterlimit="10"/>
<path d="M41.111 36.1577C41.111 36.1577 40.992 35.6376 40.6149 35.9877C40.6149 35.9877 40.4574 35.058 39.7137 35.6321C39.7137 35.6321 39.5037 34.8397 38.851 35.4488C38.851 35.4488 38.343 34.6914 37.7103 35.4488C37.7103 35.4488 37.5795 35.257 37.2734 35.5091" stroke="#000072" stroke-width="0.2" stroke-miterlimit="10"/>
<path d="M41.1494 36.6846C41.1494 36.6846 41.0097 36.1743 40.4953 36.5529C40.4953 36.5529 40.1962 35.9134 39.4547 36.3237C39.4547 36.3237 39.2808 35.676 38.5101 36.0978C38.5101 36.0978 38.2824 35.6048 37.5148 35.9551C37.5148 35.9551 37.3352 35.6433 37.0137 35.9826" stroke="#000072" stroke-width="0.2" stroke-miterlimit="10"/>
<path d="M41.1464 37.2964C41.1464 37.2964 40.8526 36.7468 40.3508 37.1028C40.3508 37.1028 39.8817 36.5069 39.2039 36.9828C39.2039 36.9828 38.9476 36.4019 38.2959 36.7985C38.2959 36.7985 37.9624 36.158 37.2705 36.6106C37.2705 36.6106 37.1436 36.273 36.6406 36.5528" stroke="#000072" stroke-width="0.2" stroke-miterlimit="10"/>
<path d="M41.0269 37.793C41.0269 37.793 40.8538 37.2496 40.1687 37.7003C40.1687 37.7003 39.7019 37.0028 39.0048 37.5192C39.0048 37.5192 38.7035 36.8085 38.0647 37.3891C38.0647 37.3891 37.8632 36.8109 37.1026 37.2502C37.1026 37.2502 36.9912 36.7978 36.6666 37.186C36.3419 37.5742 36.5808 37.1788 36.5808 37.1788" stroke="#000072" stroke-width="0.2" stroke-miterlimit="10"/>
<path d="M40.8431 38.3315C40.8431 38.3315 40.5952 37.7249 39.9843 38.2012C39.9843 38.2012 39.602 37.7059 38.817 38.0187C38.817 38.0187 38.3425 37.5077 37.7923 38.0185C37.7923 38.0185 37.4176 37.499 36.9256 37.9318C36.9256 37.9318 36.734 37.0793 36.2715 37.9031" stroke="#000072" stroke-width="0.2" stroke-miterlimit="10"/>
<path d="M40.471 38.7524C40.471 38.7524 40.4559 38.1983 39.7967 38.644C39.7967 38.644 39.3624 38.1004 38.5977 38.6115C38.5977 38.6115 38.1843 38.0521 37.6252 38.6433C37.6252 38.6433 37.2443 38.1011 36.7718 38.626C36.7718 38.626 36.7569 37.7222 36.1191 38.4307" stroke="#000072" stroke-width="0.2" stroke-miterlimit="10"/>
<path d="M40.156 39.2217C40.156 39.2217 40.0579 38.9193 39.5314 39.1529C39.5314 39.1529 38.9595 38.7678 38.3943 39.143C38.3943 39.143 38.068 38.7316 37.4709 39.1002C37.4709 39.1002 36.9795 38.7161 36.6418 39.0842C36.6418 39.0842 36.6716 38.397 35.9551 38.9247" stroke="#000072" stroke-width="0.2" stroke-miterlimit="10"/>
<path d="M39.7769 39.5892C39.7769 39.5892 39.6961 39.2478 39.2588 39.5892C39.2588 39.5892 38.7622 39.2898 38.2039 39.6514C38.2039 39.6514 37.6545 39.3392 37.301 39.6514C37.301 39.6514 36.9222 39.1909 36.5215 39.6514C36.5215 39.6514 36.3988 39.0429 36.0117 39.5444" stroke="#000072" stroke-width="0.2" stroke-miterlimit="10"/>
<path d="M39.4446 39.7645C39.4446 39.7645 39.2633 39.6157 39.0814 39.8311C39.0814 39.8311 38.3554 39.6398 38.0657 40.0239C38.0657 40.0239 37.7539 39.7192 37.1954 40.0239C37.1954 40.0239 36.9225 39.5739 36.5133 40.0239C36.5133 40.0239 36.2878 39.4256 35.8652 40.0239" stroke="#000072" stroke-width="0.2" stroke-miterlimit="10"/>
<path d="M33.683 36.8696L35.1318 35.6174L36.2714 33.8839L36.4125 33.4991L37.369 34.4496L37.4441 34.9217L36.9256 35.4496L36.6426 36.0981L36.522 36.8696V37.2839L36.5122 37.5604C36.5122 37.5604 36.0174 39.6519 36.2714 40.4751L31.8588 40.5732L31.7148 40.3291L32.4356 39.0737L33.2267 37.408L33.683 36.8696Z" fill="#000072"/>
<path d="M32.8752 28.7497C32.8752 28.7497 29.3438 34.8951 28.9473 36.6108" stroke="#000072" stroke-width="0.2" stroke-miterlimit="10"/>
<path d="M31.7459 29.2212C31.7459 29.2212 28.2939 35.4176 28.5992 35.9419" stroke="#000072" stroke-width="0.2" stroke-miterlimit="10"/>
<path d="M35.0444 28.883C35.0444 28.883 32.4199 35.2936 31.1992 36.7915" stroke="#000072" stroke-width="0.2" stroke-miterlimit="10"/>
<path d="M30.3105 30.1543C30.3105 30.1543 31.1092 29.3964 31.3066 30.0291C31.3066 30.0291 31.8428 29.321 32.2797 29.806C32.2797 29.806 33.3203 29.0546 33.4869 29.8953C33.4869 29.8953 34.433 29.2268 34.5118 30.1543C34.5118 30.1543 34.8553 30.0672 34.847 30.8464C34.847 30.8464 35.1556 31.4518 35.066 31.687" stroke="#000072" stroke-width="0.2" stroke-miterlimit="10"/>
<path d="M31.623 29.4452C31.623 29.4452 32.2484 28.9387 32.6053 29.2213C32.6053 29.2213 33.4468 28.4565 33.8855 29.0928C33.8855 29.0928 34.7176 28.9609 34.7323 29.6279C34.7323 29.6279 35.0692 30.007 35.043 30.1546C35.043 30.1546 34.6573 32.4784 33.9197 33.8594C33.9197 33.8594 32.9417 36.8685 31.9458 37.1094" stroke="#000072" stroke-width="0.2" stroke-miterlimit="10"/>
<path d="M30.1875 30.6213C30.1875 30.6213 30.6875 30.0617 30.984 30.6213C30.984 30.6213 31.7171 29.9875 31.7468 30.6213C31.7468 30.6213 32.9041 30.1195 33.0569 30.7491C33.0569 30.7491 33.9114 30.2029 34.0841 31.1368C34.0841 31.1368 34.9055 30.8613 34.645 31.8116C34.645 31.8116 35.1007 31.7046 35.0148 32.3022" stroke="#000072" stroke-width="0.2" stroke-miterlimit="10"/>
<path d="M29.7363 31.321C29.7363 31.321 30.4629 30.7123 30.5543 31.4287C30.5543 31.4287 31.2578 30.8144 31.2963 31.5909C31.2963 31.5909 32.5533 31.0122 32.5246 31.8116C32.5246 31.8116 33.4026 31.5607 33.5602 32.3131C33.5602 32.3131 34.3187 32.0863 34.3976 32.7211C34.3976 32.7211 34.957 32.6899 34.9046 33.0952" stroke="#000072" stroke-width="0.2" stroke-miterlimit="10"/>
<path d="M29.3535 32.0964C29.3535 32.0964 29.9133 31.2582 30.2536 32.0915C30.2536 32.0915 30.7064 31.7252 30.9119 32.2442C30.9119 32.2442 32.0131 31.9146 32.1096 32.6478C32.1096 32.6478 32.8548 32.228 33.2262 32.891C33.2262 32.891 34.0905 32.7631 34.2162 33.2204C34.2162 33.2204 34.6103 33.1103 34.7517 33.499" stroke="#000072" stroke-width="0.2" stroke-miterlimit="10"/>
<path d="M29.1348 32.5823C29.1348 32.5823 29.6528 32.3395 29.8072 32.8913C29.8072 32.8913 30.3437 32.4703 30.5592 32.9753C30.5592 32.9753 31.4376 32.674 31.7193 33.3057C31.7193 33.3057 32.6709 32.982 32.9803 33.5779C32.9803 33.5779 33.6256 33.4241 33.9777 33.8167C33.9777 33.8167 34.4058 33.6725 34.4642 34.0645" stroke="#000072" stroke-width="0.2" stroke-miterlimit="10"/>
<path d="M28.7578 33.2303C28.7578 33.2303 29.476 32.7517 29.4748 33.5545C29.4748 33.5545 30.0987 33.1586 30.1857 33.6529C30.1857 33.6529 31.157 33.4003 31.397 34.0641C31.397 34.0641 32.2056 33.5357 32.6048 34.3422C32.6048 34.3422 33.4368 33.9428 33.6254 34.6011" stroke="#000072" stroke-width="0.2" stroke-miterlimit="10"/>
<path d="M28.4941 33.9988C28.4941 33.9988 29.0491 33.4621 29.2344 34.0641C29.2344 34.0641 29.7454 33.6763 29.934 34.2268C29.934 34.2268 30.8278 34.0046 31.1297 34.601C31.1297 34.601 31.932 34.2923 32.3225 34.9056C32.3225 34.9056 33.0162 34.5091 33.3745 35.1128" stroke="#000072" stroke-width="0.2" stroke-miterlimit="10"/>
<path d="M28.2461 34.5051C28.2461 34.5051 28.8149 34.1895 28.9939 34.6006C28.9939 34.6006 29.4921 34.2919 29.6839 34.7507C29.6839 34.7507 30.6611 34.5704 30.8127 35.1124C30.8127 35.1124 31.7047 34.8836 32.051 35.4234C32.051 35.4234 32.7287 35.2082 33.1211 35.6351C33.1211 35.6351 33.2799 35.5498 33.2796 35.9419" stroke="#000072" stroke-width="0.2" stroke-miterlimit="10"/>
<path d="M28.0254 34.9827C28.0254 34.9827 28.6333 34.7032 28.7565 35.0615C28.7565 35.0615 29.4087 34.8272 29.4613 35.2282C29.4613 35.2282 30.5673 35.0036 30.633 35.5887C30.633 35.5887 31.6123 35.3257 31.757 35.9423C31.757 35.9423 32.606 35.629 32.7936 36.3237C32.7936 36.3237 33.1248 36.1829 33.2207 36.6108" stroke="#000072" stroke-width="0.2" stroke-miterlimit="10"/>
<path d="M17.5684 28.3019C17.5684 28.3019 20.7163 32.9424 21.4519 35.9419" stroke="#000072" stroke-width="0.2" stroke-miterlimit="10"/>
<path d="M19.377 29.1976C19.377 29.1976 21.7287 33.0612 22.5095 35.6182" stroke="#000072" stroke-width="0.2" stroke-miterlimit="10"/>
<path d="M16.0566 29.0385C16.0566 29.0385 18.7981 36.0092 19.6959 36.5527" stroke="#000072" stroke-width="0.2" stroke-miterlimit="10"/>
<path d="M15.9453 30.3397C15.9453 30.3397 18.1626 36.5514 18.824 36.8691" stroke="#000072" stroke-width="0.2" stroke-miterlimit="10"/>
<path d="M16.2559 29.3188C16.2559 29.3188 16.317 28.5897 16.9794 29.0119C16.9794 29.0119 17.2434 28.4896 17.9938 28.9454C17.9938 28.9454 18.193 28.6657 18.8269 28.8934" stroke="#000072" stroke-width="0.2" stroke-miterlimit="10"/>
<path d="M16.0957 30.749C16.0957 30.749 16.1551 30.2359 16.6225 30.4365C16.6225 30.4365 16.7672 29.7255 17.5716 30.2225C17.5716 30.2225 17.7209 29.4747 18.6088 29.9323C18.6088 29.9323 19.1668 29.2769 19.8095 29.9323C19.8095 29.9323 20.2797 29.5406 20.6231 29.9323" stroke="#000072" stroke-width="0.2" stroke-miterlimit="10"/>
<path d="M15.9453 30.1328C15.9453 30.1328 16.1515 29.8205 16.3992 29.9322C16.3992 29.9322 16.6662 29.2531 17.2429 29.5556C17.2429 29.5556 17.6083 29.0633 18.2678 29.3827C18.2678 29.3827 18.9544 29.0992 19.3752 29.2749" stroke="#000072" stroke-width="0.2" stroke-miterlimit="10"/>
<path d="M15.8711 31.7217C15.8711 31.7217 15.9504 31.3764 16.4001 31.5751C16.4001 31.5751 16.4621 31.0531 16.9776 31.3228C16.9776 31.3228 17.1098 30.6062 18.0271 31.05C18.0271 31.05 18.1197 30.2138 19.0932 30.7488C19.0932 30.7488 19.5214 30.1076 20.1699 30.57C20.1699 30.57 20.2422 30.2048 20.7391 30.5154" stroke="#000072" stroke-width="0.2" stroke-miterlimit="10"/>
<path d="M15.9453 32.5288C15.9453 32.5288 16.1505 31.9574 16.6743 32.3026C16.6743 32.3026 16.7826 31.6933 17.321 32.0964C17.321 32.0964 17.7199 31.5363 18.3041 31.8119C18.3041 31.8119 18.8297 31.0521 19.5113 31.4875C19.5113 31.4875 20.0061 30.9022 20.5404 31.2478C20.5404 31.2478 20.5594 31.0245 21.0651 31.1372" stroke="#000072" stroke-width="0.2" stroke-miterlimit="10"/>
<path d="M16.0957 33.0952C16.0957 33.0952 16.2367 32.5078 16.9005 32.8907C16.9005 32.8907 17.2087 32.4888 17.6103 32.7595C17.6103 32.7595 17.9557 32.0799 18.6694 32.4708C18.6694 32.4708 19.1485 31.852 19.9181 32.2415C19.9181 32.2415 20.2697 31.7248 20.9472 32.0208C20.9472 32.0208 20.8897 31.7171 21.4041 31.9105" stroke="#000072" stroke-width="0.2" stroke-miterlimit="10"/>
<path d="M16.3594 33.6694C16.3594 33.6694 16.5139 33.1539 17.0497 33.4126C17.0497 33.4126 17.3689 32.8732 17.8538 33.2799C17.8538 33.2799 18.0676 32.594 18.9748 33.0629C18.9748 33.0629 19.4077 32.4642 20.2052 32.757C20.2052 32.757 20.5219 32.1909 21.2358 32.5372C21.2358 32.5372 21.3842 32.2562 21.7447 32.4808" stroke="#000072" stroke-width="0.2" stroke-miterlimit="10"/>
<path d="M16.3965 34.1812C16.3965 34.1812 16.6139 33.5211 17.2078 33.6693C17.2078 33.6693 17.7414 33.4117 18.0104 33.6476C18.0104 33.6476 18.7775 33.1308 19.1715 33.499C19.1715 33.499 19.9642 32.9371 20.4446 33.295C20.4446 33.295 20.9859 32.8873 21.5158 33.1712C21.5158 33.1712 21.8062 32.8841 22.1648 33.0955" stroke="#000072" stroke-width="0.2" stroke-miterlimit="10"/>
<path d="M22.5069 33.8834C22.5069 33.8834 21.9548 33.2292 21.8266 33.8446C21.8266 33.8446 20.8841 33.3382 20.7953 34.0638C20.7953 34.0638 19.8694 33.4404 19.5438 34.2549C19.5438 34.2549 18.5971 33.7882 18.3565 34.4454C18.3565 34.4454 17.7527 33.8791 17.6594 34.6008C17.6594 34.6008 17.3442 34.4928 17.2891 34.7729" stroke="#000072" stroke-width="0.2" stroke-miterlimit="10"/>
<path d="M22.7559 34.4452C22.7559 34.4452 22.2454 33.9398 22.1096 34.5128C22.1096 34.5128 21.3592 34.0702 21.0419 34.6687C21.0419 34.6687 20.2326 34.302 19.9182 34.9823C19.9182 34.9823 19.0525 34.5495 18.8229 35.2955C18.8229 35.2955 18.2284 35.0798 18.025 35.6183C18.025 35.6183 17.7193 35.5457 17.5684 35.9419" stroke="#000072" stroke-width="0.2" stroke-miterlimit="10"/>
<path d="M22.8762 34.8788C22.8762 34.8788 22.4909 34.2545 22.311 35.0317C22.311 35.0317 21.8329 34.7651 21.2731 35.3128C21.2731 35.3128 20.5571 35.093 20.164 35.518C20.164 35.518 19.5969 35.3781 19.1854 35.7512C19.1628 35.7717 19.1407 35.7937 19.1191 35.8174" stroke="#000072" stroke-width="0.2" stroke-miterlimit="10"/>
<path d="M19.1389 35.7935C19.1389 35.7935 18.61 35.7505 18.3352 36.1926C18.3352 36.1926 17.9536 36.2072 17.7774 36.6105C17.6012 37.0138 17.6947 36.5527 17.6947 36.5527" stroke="#000072" stroke-width="0.2" stroke-miterlimit="10"/>
<path fill-rule="evenodd" clip-rule="evenodd" d="M25.4532 11.9066C31.5281 11.9066 36.2013 17.5769 36.2013 22.3115C36.2013 27.0463 27.6357 28.9595 25.4532 29.0529C23.2706 29.1462 14.2598 26.9074 14.2598 22.1727C14.2598 17.4379 19.3783 11.9066 25.4532 11.9066Z" fill="#FF850B"/>
<path d="M25.4561 12.1363C19.3978 12.1363 14.5194 17.6265 14.5194 22.1722C14.5194 23.3542 15.1184 24.4657 16.2999 25.476C18.9316 27.7263 23.7331 28.8247 25.3207 28.8248C25.3643 28.8248 25.4052 28.824 25.4439 28.8223C26.5941 28.7732 29.2439 28.2423 31.5338 27.2162C33.5473 26.3139 35.9474 24.7305 35.9474 22.311C35.9474 17.6058 31.3646 12.1363 25.4561 12.1363ZM25.3272 29.2852C23.6242 29.2852 18.7161 28.1782 15.9456 25.8093C14.6585 24.7087 14.0059 23.485 14.0059 22.1722C14.0059 19.8022 15.2721 17.1611 17.3929 15.1072C19.6446 12.9265 22.5835 11.6759 25.4561 11.6759C28.3466 11.6759 31.1332 12.9213 33.3028 15.1829C35.2803 17.2442 36.461 19.9089 36.461 22.311C36.461 24.4124 34.8365 26.251 31.7633 27.6281C29.4067 28.6842 26.6635 29.2312 25.4683 29.2823C25.4242 29.2842 25.377 29.2852 25.3272 29.2852Z" fill="#000072"/>
<g opacity="0.5">
<g opacity="0.5">
<path opacity="0.5" fill-rule="evenodd" clip-rule="evenodd" d="M25.4528 11.9056C29.1864 11.9056 32.3901 14.0478 34.3052 16.7979C34.3251 16.8867 34.3443 16.976 34.3612 17.0659C32.6127 14.7674 29.8864 13.2518 26.8672 12.8429C27.0608 12.9085 27.173 12.9864 27.173 13.07C27.173 13.3037 26.2953 13.4931 25.2127 13.4931C24.1302 13.4931 23.2525 13.3037 23.2525 13.07C23.2525 12.9864 23.3645 12.9085 23.5583 12.8429C20.5389 13.2519 17.8129 14.7676 16.0645 17.0659L16.0741 17.0175C18.0902 14.1575 21.5767 11.9056 25.4528 11.9056Z" fill="white"/>
</g>
</g>
<path fill-rule="evenodd" clip-rule="evenodd" d="M35.9128 23.7658C34.4022 27.4428 27.3967 28.9693 25.4532 29.0524C23.5296 29.1346 16.3035 27.405 14.6152 23.7523C14.7447 21.7628 15.8718 21.219 17.9562 22.1913C18.8134 22.591 19.6853 23.008 20.3763 22.6905C24.3202 20.8777 26.7283 21.2195 29.4278 22.6905C30.6902 23.3785 31.9221 22.3522 32.695 22.0394C35.1567 21.0426 36.2861 21.7398 35.9128 23.7658Z" fill="white"/>
<g opacity="0.300003">
<g opacity="0.300003">
<path opacity="0.300003" fill-rule="evenodd" clip-rule="evenodd" d="M36.1545 21.4844C36.1851 21.7622 36.2013 22.0383 36.2013 22.3112C36.2013 22.4856 36.1883 22.6556 36.1659 22.8225L36.1682 22.7726C35.8682 25.9323 28.773 28.3449 24.956 28.5397C21.7698 28.7024 15.4061 25.6265 14.3361 22.7726C14.3381 22.8317 14.3414 22.8908 14.3444 22.9498C14.2899 22.6984 14.2598 22.4396 14.2598 22.1723C14.2598 21.9596 14.2705 21.7453 14.2907 21.5298L14.3073 21.4837C16.7947 24.6907 20.8751 26.6029 25.2313 26.6029C29.587 26.6029 33.6672 24.6908 36.1545 21.4844Z" fill="#000072"/>
</g>
</g>
<path fill-rule="evenodd" clip-rule="evenodd" d="M21.5246 19.9711C21.1849 19.8353 20.8372 19.6077 20.4819 19.2887C19.8659 19.3137 19.373 19.9038 19.373 20.628C19.373 21.3682 19.8877 21.9683 20.5224 21.9683C21.1573 21.9683 21.672 21.3682 21.672 20.628C21.672 20.3893 21.6184 20.1653 21.5246 19.9711Z" fill="#000072"/>
<path d="M31.173 18.7097C30.7584 19.2036 30.3508 19.5855 29.9502 19.8555C29.3609 20.2525 28.723 20.322 28.6523 19.8847C28.9694 19.8522 29.2997 19.72 29.6433 19.4885C30.4901 18.9178 30.7548 18.5504 31.173 18.7097Z" fill="#000072"/>
<path fill-rule="evenodd" clip-rule="evenodd" d="M29.2392 19.9711C29.5788 19.8353 29.9266 19.6077 30.282 19.2887C30.898 19.3137 31.3907 19.9038 31.3907 20.628C31.3907 21.3682 30.8762 21.9683 30.2413 21.9683C29.6064 21.9683 29.0918 21.3682 29.0918 20.628C29.0918 20.3893 29.1453 20.1653 29.2392 19.9711Z" fill="#000072"/>
<path fill-rule="evenodd" clip-rule="evenodd" d="M29.7633 20.2864C29.5768 20.2864 29.4258 20.4308 29.4258 20.6088C29.4258 20.7868 29.5768 20.9312 29.7633 20.9312C29.9496 20.9312 30.1007 20.7868 30.1007 20.6088C30.1007 20.4308 29.9496 20.2864 29.7633 20.2864Z" fill="white"/>
<path fill-rule="evenodd" clip-rule="evenodd" d="M25.2345 20.8634C26.0565 20.8634 26.7229 21.2618 26.7229 21.7532C26.7229 22.2447 26.0565 22.6431 25.2345 22.6431C24.4124 22.6431 23.7461 22.2447 23.7461 21.7532C23.7461 21.2618 24.4124 20.8634 25.2345 20.8634Z" fill="#000072"/>
<path d="M26.6551 23.7339C26.1312 23.7339 25.6245 23.5592 25.2356 23.247C24.8013 23.6016 24.2027 23.7666 23.6143 23.6827C22.9307 23.5853 22.3511 23.1652 22.1013 22.5863C22.0502 22.4677 22.1159 22.3344 22.2482 22.2885C22.3804 22.2426 22.5291 22.3016 22.5803 22.4202C22.7642 22.8467 23.1913 23.1562 23.6949 23.2279C24.1987 23.2997 24.7116 23.1243 25.034 22.7701C25.0821 22.7172 25.154 22.6862 25.2301 22.6854C25.3068 22.6855 25.3787 22.7143 25.4282 22.7662C25.7644 23.1195 26.2723 23.3072 26.7891 23.2684C27.3052 23.2295 27.7719 22.9684 28.0377 22.5697C28.1104 22.4605 28.2683 22.4249 28.3898 22.4903C28.5115 22.5555 28.5512 22.6969 28.4784 22.806C28.128 23.3316 27.5126 23.676 26.8321 23.7272C26.773 23.7317 26.7139 23.7339 26.6551 23.7339Z" fill="#000072"/>
<path fill-rule="evenodd" clip-rule="evenodd" d="M25.2336 22.915C25.7688 23.3712 26.2946 23.5653 26.8112 23.4971C26.939 26.5043 23.5395 26.3818 23.6552 23.4546C24.2885 23.5267 24.8145 23.3469 25.2336 22.915Z" fill="#000072"/>
<path d="M23.9118 23.7009C23.9372 24.4671 24.2403 25.0695 24.745 25.3375C25.0785 25.5145 25.4553 25.517 25.7789 25.3442C26.2621 25.0861 26.54 24.5084 26.5579 23.7403C26.121 23.7278 25.6821 23.5582 25.2475 23.234C24.8733 23.5445 24.4297 23.7009 23.9234 23.7009C23.9196 23.7009 23.9157 23.7009 23.9118 23.7009ZM25.2727 25.9316C25.003 25.9317 24.7318 25.8657 24.4834 25.7338C23.7525 25.3457 23.3574 24.5121 23.3995 23.4469L23.4095 23.1949L23.6884 23.2267C24.2367 23.289 24.6784 23.1377 25.0407 22.7643L25.2168 22.5828L25.4113 22.7485C25.8907 23.1571 26.3371 23.3277 26.7747 23.2697L27.0578 23.2324L27.0686 23.4888C27.1136 24.5467 26.7392 25.3672 26.0417 25.7398C25.8022 25.8677 25.5381 25.9316 25.2727 25.9316Z" fill="#000072"/>
<path fill-rule="evenodd" clip-rule="evenodd" d="M25.2623 24.578C24.8052 24.578 24.3759 24.7742 24.1074 25.1057C24.7254 25.895 25.8212 25.9079 26.4116 25.099C26.1428 24.7716 25.7161 24.578 25.2623 24.578Z" fill="#FF0066"/>
<path d="M24.437 25.1117C24.675 25.347 24.9744 25.4746 25.285 25.472C25.5853 25.4676 25.8623 25.3405 26.0802 25.1105C25.863 24.9194 25.5675 24.809 25.2594 24.809C24.95 24.809 24.6542 24.9198 24.437 25.1117ZM25.2691 25.9326C24.7403 25.9326 24.2404 25.6807 23.8944 25.2387L23.7891 25.1042L23.8968 24.9711C24.2125 24.5812 24.7219 24.3485 25.2594 24.3485C25.7925 24.3485 26.2994 24.5783 26.6154 24.9632L26.7211 25.092L26.6235 25.2258C26.3013 25.6672 25.8165 25.9248 25.2934 25.9324C25.2853 25.9326 25.2771 25.9326 25.2691 25.9326Z" fill="#000072"/>
<path fill-rule="evenodd" clip-rule="evenodd" d="M34.9504 17.4932C33.3015 15.0497 31.3246 13.3953 29.0195 12.5304C33.5411 6.84861 35.5181 8.50285 34.9504 17.4932Z" fill="#FF850B"/>
<path d="M29.4151 12.434C31.4387 13.2623 33.225 14.7142 34.7363 16.7581C35.0121 11.2185 34.1742 9.74429 33.4035 9.5012C32.8152 9.31581 31.649 9.68447 29.4151 12.434ZM35.1612 18.2485L34.7321 17.6126C33.1196 15.2231 31.1647 13.5847 28.9218 12.7431L28.625 12.6317L28.8119 12.3969C30.8802 9.79792 32.4374 8.70822 33.5738 9.0668C35.0234 9.52406 35.5427 12.2058 35.2081 17.5064L35.1612 18.2485Z" fill="#000072"/>
<path fill-rule="evenodd" clip-rule="evenodd" d="M28.6291 17.79C29.0094 17.6502 29.3928 17.7009 29.4853 17.9033C29.5778 18.1057 29.3445 18.3832 28.9643 18.5231C28.584 18.6629 28.2007 18.6121 28.1081 18.4098C28.0156 18.2074 28.2489 17.9299 28.6291 17.79Z" fill="white"/>
<path fill-rule="evenodd" clip-rule="evenodd" d="M22.0014 17.7769C21.6212 17.637 21.2378 17.6878 21.1453 17.8902C21.0527 18.0925 21.286 18.37 21.6662 18.5099C22.0464 18.6497 22.4298 18.599 22.5223 18.3966C22.6149 18.1943 22.3816 17.9167 22.0014 17.7769Z" fill="white"/>
<path fill-rule="evenodd" clip-rule="evenodd" d="M20.693 20.2864C20.5065 20.2864 20.3555 20.4308 20.3555 20.6088C20.3555 20.7868 20.5065 20.9312 20.693 20.9312C20.8793 20.9312 21.0304 20.7868 21.0304 20.6088C21.0304 20.4308 20.8793 20.2864 20.693 20.2864Z" fill="white"/>
<path fill-rule="evenodd" clip-rule="evenodd" d="M15.6848 17.6099C17.3336 15.1663 19.3105 13.512 21.6156 12.647C17.094 6.96522 15.1171 8.61955 15.6848 17.6099Z" fill="#FF850B"/>
<path d="M17.507 9.57746C17.4038 9.57746 17.3128 9.59244 17.2325 9.61779C16.4618 9.86089 15.6239 11.3351 15.8997 16.8747C17.4108 14.8308 19.1971 13.3789 21.2208 12.5506C19.2919 10.1765 18.159 9.57746 17.507 9.57746ZM15.4748 18.3652L15.4279 17.6231C15.0932 12.3224 15.6125 9.64066 17.0621 9.18337C18.1978 8.82522 19.7555 9.9143 21.824 12.5135L22.0109 12.7483L21.7141 12.8596C19.4711 13.7014 17.5162 15.3397 15.9039 17.7293L15.4748 18.3652Z" fill="#000072"/>
<g opacity="0.649994">
<g opacity="0.649994">
<path opacity="0.649994" fill-rule="evenodd" clip-rule="evenodd" d="M21.0444 12.8779C21.2309 12.7952 21.4199 12.718 21.611 12.6462C18.8086 9.12472 16.9842 8.42256 16.1367 10.5369C17.0393 9.05012 18.675 9.83036 21.0441 12.8778L21.0444 12.8779Z" fill="white"/>
</g>
</g>
<path fill-rule="evenodd" clip-rule="evenodd" d="M16.9187 15.9531C17.7225 15.0616 18.6334 14.29 19.6516 13.6383C17.3692 9.65248 16.4582 10.4241 16.9187 15.9531Z" fill="#000072"/>
<path d="M17.5073 11.3642C17.4961 11.3642 17.4884 11.3655 17.484 11.3667C17.4565 11.3736 17.2125 11.4638 17.1082 12.4789C17.0378 13.1629 17.0461 14.1341 17.1326 15.3711C17.7962 14.6978 18.5304 14.0935 19.3232 13.5684C18.1223 11.5099 17.6241 11.3642 17.5073 11.3642ZM16.7122 16.5498L16.664 15.9703C16.3135 11.763 16.8114 11.0581 17.3448 10.9234C17.9826 10.7619 18.7414 11.5428 19.8812 13.5332L19.9826 13.7102L19.8019 13.8258C18.8078 14.462 17.9053 15.2265 17.1196 16.098L16.7122 16.5498Z" fill="#000072"/>
<g opacity="0.300003">
<g opacity="0.300003">
<path opacity="0.300003" fill-rule="evenodd" clip-rule="evenodd" d="M17.2135 11.2671C16.3806 11.8257 15.8426 13.337 15.5996 15.8008C15.6142 16.3666 15.6418 16.9696 15.6822 17.6099C15.8054 17.4101 15.9356 17.2126 16.0732 17.0183L16.0636 17.0667C16.7289 16.1567 17.4446 15.3677 18.2104 14.6997C17.7626 15.0785 17.3406 15.4863 16.9444 15.923C16.9367 15.9315 16.9289 15.94 16.9211 15.9488C16.9204 15.9495 16.9198 15.9503 16.919 15.9513C16.9183 15.952 16.9177 15.9527 16.917 15.9534C16.6938 13.2744 16.7927 11.7124 17.2135 11.2671ZM33.4183 11.1507C34.2513 11.7093 34.7893 13.2205 35.0322 15.6844C35.0176 16.2502 34.99 16.8532 34.9497 17.4934C34.8264 17.2936 34.6962 17.0963 34.5586 16.9018L34.5682 16.9503C33.903 16.0402 33.1873 15.2512 32.4214 14.5834C32.8693 14.9621 33.2912 15.3699 33.6874 15.8066C33.6951 15.8151 33.7029 15.8237 33.7107 15.8323C33.7114 15.8331 33.7121 15.8339 33.7128 15.8348C33.7136 15.8356 33.7141 15.8362 33.7148 15.837C33.9381 13.1581 33.8391 11.5959 33.4183 11.1507Z" fill="#000072"/>
</g>
</g>
<g opacity="0.649994">
<g opacity="0.649994">
<path opacity="0.649994" fill-rule="evenodd" clip-rule="evenodd" d="M29.5842 12.7622C29.3977 12.6795 29.2087 12.6023 29.0176 12.5306C31.8199 9.00908 33.6444 8.30683 34.492 10.4212C33.5894 8.93439 31.9536 9.71471 29.5845 12.7621L29.5842 12.7622Z" fill="white"/>
</g>
</g>
<path fill-rule="evenodd" clip-rule="evenodd" d="M33.7192 15.8364C32.9154 14.9448 32.0045 14.1732 30.9863 13.5215C33.2687 9.53569 34.1798 10.3073 33.7192 15.8364Z" fill="#000072"/>
<path d="M31.3117 13.4521C32.1046 13.9772 32.8389 14.5816 33.5023 15.2548C33.5888 14.0178 33.5971 13.0466 33.5267 12.3626C33.4223 11.3474 33.1785 11.2573 33.151 11.2503C33.1003 11.2377 32.6284 11.1952 31.3117 13.4521ZM33.9226 16.4336L33.5153 15.9817C32.7298 15.1103 31.8274 14.3458 30.833 13.7094L30.6523 13.5938L30.7537 13.4168C31.8934 11.4265 32.6516 10.6458 33.2902 10.8071C33.8235 10.9418 34.3215 11.6467 33.9709 15.8541L33.9226 16.4336Z" fill="#000072"/>
<path d="M17.5071 9.57748C17.4039 9.57748 17.3129 9.59246 17.2326 9.61781C16.4619 9.86092 15.6239 11.3352 15.8997 16.8748C17.4109 14.8308 19.1972 13.3789 21.2209 12.5506C19.2921 10.1765 18.1591 9.57748 17.5071 9.57748ZM15.4747 18.3652L15.4279 17.6231C15.0932 12.3224 15.6126 9.64065 17.0622 9.18339C18.1979 8.82524 19.7556 9.91432 21.8241 12.5135L22.011 12.7483L21.7142 12.8597C19.4712 13.7014 17.5163 15.3398 15.9039 17.7293L15.4747 18.3652Z" fill="#000072"/>
<path d="M25.4561 12.1363C19.3978 12.1363 14.5194 17.6265 14.5194 22.1722C14.5194 23.3542 15.1184 24.4657 16.2999 25.476C18.9316 27.7263 23.7331 28.8247 25.3207 28.8248C25.3643 28.8248 25.4052 28.824 25.4439 28.8223C26.5941 28.7732 29.2439 28.2423 31.5338 27.2162C33.5473 26.3139 35.9474 24.7305 35.9474 22.311C35.9474 17.6058 31.3646 12.1363 25.4561 12.1363ZM25.3272 29.2852C23.6242 29.2852 18.7161 28.1782 15.9456 25.8093C14.6585 24.7087 14.0059 23.485 14.0059 22.1722C14.0059 19.8022 15.2721 17.1611 17.3929 15.1072C19.6446 12.9265 22.5835 11.6759 25.4561 11.6759C28.3466 11.6759 31.1332 12.9213 33.3028 15.1829C35.2803 17.2442 36.461 19.9089 36.461 22.311C36.461 24.4124 34.8365 26.251 31.7633 27.6281C29.4067 28.6842 26.6635 29.2312 25.4683 29.2823C25.4242 29.2842 25.377 29.2852 25.3272 29.2852Z" fill="#000072"/>
<g opacity="0.559998">
<g opacity="0.559998">
<path opacity="0.559998" fill-rule="evenodd" clip-rule="evenodd" d="M25.7226 21.2197C25.9471 21.2728 26.1131 21.3696 26.0936 21.4359C26.0742 21.5022 25.8765 21.513 25.652 21.4599C25.4275 21.4069 25.2613 21.3101 25.2809 21.2437C25.3004 21.1774 25.4982 21.1666 25.7226 21.2197Z" fill="white"/>
</g>
</g>
<path d="M19.7754 18.7097C20.1901 19.2036 20.5977 19.5855 20.9983 19.8555C21.5877 20.2525 22.2255 20.322 22.2962 19.8847C21.9792 19.8522 21.6488 19.72 21.3052 19.4885C20.4584 18.9178 20.1936 18.5504 19.7754 18.7097Z" fill="#000072"/>
<path d="M29.4151 12.434C31.4387 13.2623 33.225 14.7142 34.7363 16.7581C35.0121 11.2185 34.1742 9.74429 33.4035 9.5012C32.8152 9.31581 31.649 9.68447 29.4151 12.434ZM35.1612 18.2485L34.7321 17.6126C33.1196 15.2231 31.1647 13.5847 28.9218 12.7431L28.625 12.6317L28.8119 12.3969C30.8802 9.79792 32.4374 8.70822 33.5738 9.0668C35.0234 9.52406 35.5427 12.2058 35.2081 17.5064L35.1612 18.2485Z" fill="#000072"/>
</svg>
