<svg width="282" height="72" viewBox="0 0 282 72" fill="none" xmlns="http://www.w3.org/2000/svg">
<path d="M72.075 44.275C71.375 44.275 70.6583 44.2167 69.925 44.1C69.2083 44 68.5167 43.85 67.85 43.65C67.2 43.45 66.6167 43.2 66.1 42.9C65.7333 42.7 65.475 42.4417 65.325 42.125C65.175 41.7917 65.1167 41.4583 65.15 41.125C65.2 40.7917 65.325 40.5 65.525 40.25C65.7417 39.9833 66.0083 39.8167 66.325 39.75C66.6583 39.6667 67.025 39.725 67.425 39.925C68.1083 40.3083 68.85 40.5917 69.65 40.775C70.4667 40.9583 71.275 41.05 72.075 41.05C73.2917 41.05 74.1583 40.8667 74.675 40.5C75.1917 40.1167 75.45 39.6417 75.45 39.075C75.45 38.5917 75.2667 38.2083 74.9 37.925C74.5333 37.6417 73.8917 37.4 72.975 37.2L70.15 36.6C68.55 36.2667 67.3583 35.7 66.575 34.9C65.8083 34.0833 65.425 33.0167 65.425 31.7C65.425 30.8667 65.6 30.1083 65.95 29.425C66.3 28.7417 66.7917 28.15 67.425 27.65C68.0583 27.15 68.8083 26.7667 69.675 26.5C70.5583 26.2333 71.525 26.1 72.575 26.1C73.5083 26.1 74.425 26.2167 75.325 26.45C76.225 26.6667 77.0167 26.9917 77.7 27.425C78.0333 27.625 78.2583 27.8833 78.375 28.2C78.5083 28.5 78.55 28.8083 78.5 29.125C78.4667 29.425 78.3417 29.6917 78.125 29.925C77.925 30.1583 77.6667 30.3083 77.35 30.375C77.0333 30.4417 76.65 30.3667 76.2 30.15C75.65 29.8667 75.0667 29.6583 74.45 29.525C73.8333 29.3917 73.2 29.325 72.55 29.325C71.85 29.325 71.25 29.4167 70.75 29.6C70.2667 29.7833 69.8917 30.0417 69.625 30.375C69.375 30.7083 69.25 31.0917 69.25 31.525C69.25 32.0083 69.425 32.4 69.775 32.7C70.125 33 70.7333 33.2417 71.6 33.425L74.425 34.025C76.0583 34.375 77.275 34.9417 78.075 35.725C78.875 36.4917 79.275 37.5083 79.275 38.775C79.275 39.6083 79.1083 40.3667 78.775 41.05C78.4417 41.7167 77.9583 42.2917 77.325 42.775C76.6917 43.2583 75.9333 43.6333 75.05 43.9C74.1667 44.15 73.175 44.275 72.075 44.275ZM83.3656 48.725C82.749 48.725 82.274 48.5583 81.9406 48.225C81.624 47.9083 81.4656 47.4333 81.4656 46.8V33.425C81.4656 32.8083 81.624 32.3417 81.9406 32.025C82.274 31.6917 82.7323 31.525 83.3156 31.525C83.9323 31.525 84.399 31.6917 84.7156 32.025C85.0323 32.3417 85.1906 32.8083 85.1906 33.425V35.125L84.9156 34.15C85.1656 33.35 85.6656 32.7083 86.4156 32.225C87.1823 31.725 88.0573 31.475 89.0406 31.475C90.1073 31.475 91.0406 31.7333 91.8406 32.25C92.6573 32.7667 93.2906 33.5 93.7406 34.45C94.1906 35.4 94.4156 36.5333 94.4156 37.85C94.4156 39.1667 94.1906 40.3083 93.7406 41.275C93.2906 42.2417 92.6656 42.9833 91.8656 43.5C91.0656 44.0167 90.124 44.275 89.0406 44.275C88.074 44.275 87.2156 44.0417 86.4656 43.575C85.7156 43.0917 85.2073 42.4667 84.9406 41.7H85.2406V46.8C85.2406 47.4333 85.074 47.9083 84.7406 48.225C84.424 48.5583 83.9656 48.725 83.3656 48.725ZM87.9156 41.45C88.449 41.45 88.9156 41.3167 89.3156 41.05C89.7323 40.7833 90.049 40.3917 90.2656 39.875C90.499 39.3417 90.6156 38.6667 90.6156 37.85C90.6156 36.6333 90.3656 35.7417 89.8656 35.175C89.3656 34.5917 88.7156 34.3 87.9156 34.3C87.3823 34.3 86.9073 34.425 86.4906 34.675C86.0906 34.925 85.774 35.3167 85.5406 35.85C85.3073 36.3667 85.1906 37.0333 85.1906 37.85C85.1906 39.0667 85.4406 39.975 85.9406 40.575C86.4406 41.1583 87.099 41.45 87.9156 41.45ZM98.6244 44.2C98.0077 44.2 97.5327 44.025 97.1994 43.675C96.8827 43.3083 96.7244 42.8 96.7244 42.15V33.6C96.7244 32.9333 96.8827 32.425 97.1994 32.075C97.5327 31.7083 98.0077 31.525 98.6244 31.525C99.2244 31.525 99.6827 31.7083 99.9994 32.075C100.333 32.425 100.499 32.9333 100.499 33.6V42.15C100.499 42.8 100.341 43.3083 100.024 43.675C99.7077 44.025 99.2411 44.2 98.6244 44.2ZM98.6244 29.475C97.9244 29.475 97.3827 29.3167 96.9994 29C96.6327 28.6667 96.4494 28.2 96.4494 27.6C96.4494 26.9833 96.6327 26.5167 96.9994 26.2C97.3827 25.8667 97.9244 25.7 98.6244 25.7C99.3244 25.7 99.8577 25.8667 100.224 26.2C100.591 26.5167 100.774 26.9833 100.774 27.6C100.774 28.2 100.591 28.6667 100.224 29C99.8577 29.3167 99.3244 29.475 98.6244 29.475ZM108.189 44.275C107.122 44.275 106.181 44.0167 105.364 43.5C104.564 42.9833 103.939 42.2417 103.489 41.275C103.039 40.3083 102.814 39.1667 102.814 37.85C102.814 36.5333 103.039 35.4 103.489 34.45C103.939 33.5 104.564 32.7667 105.364 32.25C106.181 31.7333 107.122 31.475 108.189 31.475C109.156 31.475 110.006 31.7083 110.739 32.175C111.489 32.6417 111.997 33.25 112.264 34H111.989V28.075C111.989 27.4417 112.147 26.9667 112.464 26.65C112.781 26.3167 113.247 26.15 113.864 26.15C114.464 26.15 114.931 26.3167 115.264 26.65C115.597 26.9667 115.764 27.4417 115.764 28.075V42.3C115.764 42.9167 115.597 43.3917 115.264 43.725C114.947 44.0583 114.489 44.225 113.889 44.225C113.289 44.225 112.822 44.0583 112.489 43.725C112.172 43.3917 112.014 42.9167 112.014 42.3V40.6L112.289 41.575C112.056 42.3917 111.556 43.05 110.789 43.55C110.039 44.0333 109.172 44.275 108.189 44.275ZM109.314 41.45C109.864 41.45 110.339 41.3167 110.739 41.05C111.139 40.7833 111.456 40.3917 111.689 39.875C111.922 39.3417 112.039 38.6667 112.039 37.85C112.039 36.6333 111.789 35.7417 111.289 35.175C110.789 34.5917 110.131 34.3 109.314 34.3C108.781 34.3 108.306 34.425 107.889 34.675C107.489 34.925 107.172 35.3167 106.939 35.85C106.722 36.3667 106.614 37.0333 106.614 37.85C106.614 39.0667 106.864 39.975 107.364 40.575C107.864 41.1583 108.514 41.45 109.314 41.45ZM125.048 44.275C123.598 44.275 122.348 44.0167 121.298 43.5C120.264 42.9667 119.464 42.225 118.898 41.275C118.348 40.3083 118.073 39.175 118.073 37.875C118.073 36.6083 118.339 35.5 118.873 34.55C119.406 33.5833 120.148 32.8333 121.098 32.3C122.064 31.75 123.156 31.475 124.373 31.475C125.256 31.475 126.056 31.625 126.773 31.925C127.489 32.2083 128.106 32.625 128.623 33.175C129.139 33.7083 129.531 34.3667 129.798 35.15C130.064 35.9167 130.198 36.775 130.198 37.725C130.198 38.0417 130.098 38.2833 129.898 38.45C129.698 38.6 129.406 38.675 129.023 38.675H121.173V36.725H127.473L127.073 37.075C127.073 36.3917 126.973 35.825 126.773 35.375C126.573 34.9083 126.281 34.5583 125.898 34.325C125.531 34.0917 125.073 33.975 124.523 33.975C123.906 33.975 123.381 34.1167 122.948 34.4C122.514 34.6833 122.181 35.0917 121.948 35.625C121.714 36.1583 121.598 36.8 121.598 37.55V37.75C121.598 39.0167 121.889 39.95 122.473 40.55C123.073 41.15 123.956 41.45 125.123 41.45C125.523 41.45 125.981 41.4 126.498 41.3C127.014 41.2 127.498 41.0417 127.948 40.825C128.331 40.6417 128.673 40.5833 128.973 40.65C129.273 40.7 129.506 40.8333 129.673 41.05C129.839 41.2667 129.931 41.5167 129.948 41.8C129.981 42.0833 129.923 42.3667 129.773 42.65C129.623 42.9167 129.373 43.1417 129.023 43.325C128.456 43.6417 127.814 43.875 127.098 44.025C126.398 44.1917 125.714 44.275 125.048 44.275ZM134.343 44.225C133.71 44.225 133.227 44.0583 132.893 43.725C132.56 43.3917 132.393 42.9167 132.393 42.3V33.425C132.393 32.8083 132.552 32.3417 132.868 32.025C133.202 31.6917 133.66 31.525 134.243 31.525C134.843 31.525 135.302 31.6917 135.618 32.025C135.935 32.3417 136.093 32.8083 136.093 33.425V34.725H135.843C136.043 33.725 136.485 32.95 137.168 32.4C137.852 31.85 138.735 31.5417 139.818 31.475C140.235 31.4417 140.552 31.55 140.768 31.8C141.002 32.0333 141.127 32.425 141.143 32.975C141.177 33.4917 141.068 33.9 140.818 34.2C140.585 34.5 140.185 34.6833 139.618 34.75L139.043 34.8C138.093 34.8833 137.385 35.1583 136.918 35.625C136.468 36.0917 136.243 36.7667 136.243 37.65V42.3C136.243 42.9167 136.077 43.3917 135.743 43.725C135.427 44.0583 134.96 44.225 134.343 44.225ZM149.321 44.275C148.621 44.275 147.904 44.2167 147.171 44.1C146.454 44 145.763 43.85 145.096 43.65C144.446 43.45 143.863 43.2 143.346 42.9C142.979 42.7 142.721 42.4417 142.571 42.125C142.421 41.7917 142.363 41.4583 142.396 41.125C142.446 40.7917 142.571 40.5 142.771 40.25C142.988 39.9833 143.254 39.8167 143.571 39.75C143.904 39.6667 144.271 39.725 144.671 39.925C145.354 40.3083 146.096 40.5917 146.896 40.775C147.713 40.9583 148.521 41.05 149.321 41.05C150.538 41.05 151.404 40.8667 151.921 40.5C152.438 40.1167 152.696 39.6417 152.696 39.075C152.696 38.5917 152.513 38.2083 152.146 37.925C151.779 37.6417 151.138 37.4 150.221 37.2L147.396 36.6C145.796 36.2667 144.604 35.7 143.821 34.9C143.054 34.0833 142.671 33.0167 142.671 31.7C142.671 30.8667 142.846 30.1083 143.196 29.425C143.546 28.7417 144.038 28.15 144.671 27.65C145.304 27.15 146.054 26.7667 146.921 26.5C147.804 26.2333 148.771 26.1 149.821 26.1C150.754 26.1 151.671 26.2167 152.571 26.45C153.471 26.6667 154.263 26.9917 154.946 27.425C155.279 27.625 155.504 27.8833 155.621 28.2C155.754 28.5 155.796 28.8083 155.746 29.125C155.713 29.425 155.588 29.6917 155.371 29.925C155.171 30.1583 154.913 30.3083 154.596 30.375C154.279 30.4417 153.896 30.3667 153.446 30.15C152.896 29.8667 152.313 29.6583 151.696 29.525C151.079 29.3917 150.446 29.325 149.796 29.325C149.096 29.325 148.496 29.4167 147.996 29.6C147.513 29.7833 147.138 30.0417 146.871 30.375C146.621 30.7083 146.496 31.0917 146.496 31.525C146.496 32.0083 146.671 32.4 147.021 32.7C147.371 33 147.979 33.2417 148.846 33.425L151.671 34.025C153.304 34.375 154.521 34.9417 155.321 35.725C156.121 36.4917 156.521 37.5083 156.521 38.775C156.521 39.6083 156.354 40.3667 156.021 41.05C155.688 41.7167 155.204 42.2917 154.571 42.775C153.938 43.2583 153.179 43.6333 152.296 43.9C151.413 44.15 150.421 44.275 149.321 44.275ZM160.612 44.225C159.995 44.225 159.52 44.0583 159.187 43.725C158.87 43.3917 158.712 42.9167 158.712 42.3V28.075C158.712 27.4417 158.87 26.9667 159.187 26.65C159.52 26.3167 159.995 26.15 160.612 26.15C161.212 26.15 161.67 26.3167 161.987 26.65C162.32 26.9667 162.487 27.4417 162.487 28.075V34.025H162.137C162.52 33.2083 163.087 32.5833 163.837 32.15C164.603 31.7 165.47 31.475 166.437 31.475C167.42 31.475 168.228 31.6667 168.862 32.05C169.495 32.4167 169.97 32.9833 170.287 33.75C170.603 34.5 170.762 35.4583 170.762 36.625V42.3C170.762 42.9167 170.595 43.3917 170.262 43.725C169.945 44.0583 169.478 44.225 168.862 44.225C168.262 44.225 167.795 44.0583 167.462 43.725C167.145 43.3917 166.987 42.9167 166.987 42.3V36.8C166.987 35.95 166.828 35.3417 166.512 34.975C166.212 34.5917 165.745 34.4 165.112 34.4C164.312 34.4 163.67 34.65 163.187 35.15C162.72 35.65 162.487 36.3167 162.487 37.15V42.3C162.487 43.5833 161.862 44.225 160.612 44.225ZM175.48 44.2C174.863 44.2 174.388 44.025 174.055 43.675C173.738 43.3083 173.58 42.8 173.58 42.15V33.6C173.58 32.9333 173.738 32.425 174.055 32.075C174.388 31.7083 174.863 31.525 175.48 31.525C176.08 31.525 176.538 31.7083 176.855 32.075C177.188 32.425 177.355 32.9333 177.355 33.6V42.15C177.355 42.8 177.197 43.3083 176.88 43.675C176.563 44.025 176.097 44.2 175.48 44.2ZM175.48 29.475C174.78 29.475 174.238 29.3167 173.855 29C173.488 28.6667 173.305 28.2 173.305 27.6C173.305 26.9833 173.488 26.5167 173.855 26.2C174.238 25.8667 174.78 25.7 175.48 25.7C176.18 25.7 176.713 25.8667 177.08 26.2C177.447 26.5167 177.63 26.9833 177.63 27.6C177.63 28.2 177.447 28.6667 177.08 29C176.713 29.3167 176.18 29.475 175.48 29.475ZM187.844 44.275C186.861 44.275 185.986 44.0333 185.219 43.55C184.469 43.05 183.969 42.3917 183.719 41.575L183.994 40.75V42.3C183.994 42.9167 183.836 43.3917 183.519 43.725C183.203 44.0583 182.744 44.225 182.144 44.225C181.544 44.225 181.078 44.0583 180.744 43.725C180.428 43.3917 180.269 42.9167 180.269 42.3V28.075C180.269 27.4417 180.428 26.9667 180.744 26.65C181.078 26.3167 181.553 26.15 182.169 26.15C182.769 26.15 183.228 26.3167 183.544 26.65C183.878 26.9667 184.044 27.4417 184.044 28.075V34H183.744C184.011 33.25 184.519 32.6417 185.269 32.175C186.019 31.7083 186.878 31.475 187.844 31.475C188.928 31.475 189.869 31.7333 190.669 32.25C191.469 32.7667 192.094 33.5 192.544 34.45C192.994 35.4 193.219 36.5333 193.219 37.85C193.219 39.1667 192.994 40.3083 192.544 41.275C192.094 42.2417 191.461 42.9833 190.644 43.5C189.844 44.0167 188.911 44.275 187.844 44.275ZM186.719 41.45C187.253 41.45 187.719 41.3167 188.119 41.05C188.536 40.7833 188.853 40.3917 189.069 39.875C189.303 39.3417 189.419 38.6667 189.419 37.85C189.419 36.6333 189.169 35.7417 188.669 35.175C188.169 34.5917 187.519 34.3 186.719 34.3C186.186 34.3 185.711 34.425 185.294 34.675C184.894 34.925 184.578 35.3167 184.344 35.85C184.111 36.3667 183.994 37.0333 183.994 37.85C183.994 39.0667 184.244 39.975 184.744 40.575C185.244 41.1583 185.903 41.45 186.719 41.45ZM199.678 44.275C198.778 44.275 197.97 44.1 197.253 43.75C196.536 43.4 195.978 42.925 195.578 42.325C195.178 41.725 194.978 41.05 194.978 40.3C194.978 39.4 195.211 38.6917 195.678 38.175C196.145 37.6417 196.903 37.2667 197.953 37.05C199.003 36.8167 200.395 36.7 202.128 36.7H203.453V38.65H202.153C201.303 38.65 200.611 38.7 200.078 38.8C199.561 38.8833 199.186 39.0333 198.953 39.25C198.736 39.4667 198.628 39.7667 198.628 40.15C198.628 40.6167 198.786 41 199.103 41.3C199.436 41.6 199.911 41.75 200.528 41.75C201.011 41.75 201.436 41.6417 201.803 41.425C202.186 41.1917 202.486 40.8833 202.703 40.5C202.92 40.1 203.028 39.65 203.028 39.15V36.275C203.028 35.5417 202.861 35.025 202.528 34.725C202.195 34.4083 201.628 34.25 200.828 34.25C200.378 34.25 199.886 34.3083 199.353 34.425C198.836 34.525 198.261 34.7 197.628 34.95C197.261 35.1167 196.936 35.1583 196.653 35.075C196.37 34.975 196.153 34.8083 196.003 34.575C195.853 34.325 195.778 34.0583 195.778 33.775C195.778 33.475 195.861 33.1917 196.028 32.925C196.195 32.6417 196.47 32.4333 196.853 32.3C197.636 31.9833 198.37 31.7667 199.053 31.65C199.753 31.5333 200.395 31.475 200.978 31.475C202.261 31.475 203.311 31.6667 204.128 32.05C204.961 32.4167 205.586 32.9917 206.003 33.775C206.42 34.5417 206.628 35.5333 206.628 36.75V42.3C206.628 42.9167 206.478 43.3917 206.178 43.725C205.878 44.0583 205.445 44.225 204.878 44.225C204.311 44.225 203.87 44.0583 203.553 43.725C203.253 43.3917 203.103 42.9167 203.103 42.3V41.375L203.278 41.525C203.178 42.0917 202.961 42.5833 202.628 43C202.311 43.4 201.903 43.7167 201.403 43.95C200.903 44.1667 200.328 44.275 199.678 44.275Z" fill="white"/>
<path d="M218.702 44.225C218.068 44.225 217.585 44.05 217.252 43.7C216.918 43.35 216.752 42.8583 216.752 42.225V28.15C216.752 27.5167 216.918 27.025 217.252 26.675C217.585 26.325 218.068 26.15 218.702 26.15C219.318 26.15 219.793 26.325 220.127 26.675C220.46 27.025 220.627 27.5167 220.627 28.15V42.225C220.627 42.8583 220.46 43.35 220.127 43.7C219.81 44.05 219.335 44.225 218.702 44.225ZM225.748 44.225C225.132 44.225 224.657 44.0583 224.323 43.725C224.007 43.3917 223.848 42.9167 223.848 42.3V33.425C223.848 32.8083 224.007 32.3417 224.323 32.025C224.657 31.6917 225.115 31.525 225.698 31.525C226.298 31.525 226.757 31.6917 227.073 32.025C227.39 32.3417 227.548 32.8083 227.548 33.425V34.85L227.273 34.025C227.657 33.2083 228.223 32.5833 228.973 32.15C229.74 31.7 230.607 31.475 231.573 31.475C232.557 31.475 233.365 31.6667 233.998 32.05C234.632 32.4167 235.107 32.9833 235.423 33.75C235.74 34.5 235.898 35.4583 235.898 36.625V42.3C235.898 42.9167 235.732 43.3917 235.398 43.725C235.082 44.0583 234.615 44.225 233.998 44.225C233.398 44.225 232.932 44.0583 232.598 43.725C232.282 43.3917 232.123 42.9167 232.123 42.3V36.8C232.123 35.95 231.965 35.3417 231.648 34.975C231.348 34.5917 230.882 34.4 230.248 34.4C229.448 34.4 228.807 34.65 228.323 35.15C227.857 35.65 227.623 36.3167 227.623 37.15V42.3C227.623 43.5833 226.998 44.225 225.748 44.225ZM243.242 44.275C242.208 44.275 241.35 44.0833 240.667 43.7C239.983 43.3167 239.475 42.7417 239.142 41.975C238.825 41.1917 238.667 40.225 238.667 39.075V33.425C238.667 32.7917 238.825 32.3167 239.142 32C239.475 31.6833 239.942 31.525 240.542 31.525C241.142 31.525 241.608 31.6833 241.942 32C242.275 32.3167 242.442 32.7917 242.442 33.425V39.175C242.442 39.9083 242.592 40.4583 242.892 40.825C243.192 41.175 243.667 41.35 244.317 41.35C245.033 41.35 245.617 41.1 246.067 40.6C246.533 40.0833 246.767 39.4083 246.767 38.575V33.425C246.767 32.7917 246.925 32.3167 247.242 32C247.575 31.6833 248.042 31.525 248.642 31.525C249.258 31.525 249.725 31.6833 250.042 32C250.375 32.3167 250.542 32.7917 250.542 33.425V42.3C250.542 43.5833 249.933 44.225 248.717 44.225C248.117 44.225 247.658 44.0583 247.342 43.725C247.025 43.3917 246.867 42.9167 246.867 42.3V40.625L247.242 41.6C246.875 42.45 246.35 43.1083 245.667 43.575C244.983 44.0417 244.175 44.275 243.242 44.275Z" fill="#E11D2E"/>
<rect y="11" width="50" height="50" rx="15" fill="#E22F2F"/>
<g opacity="0.300003">
<g opacity="0.300003">
<path opacity="0.300003" d="M43 51.6059C43 52.162 35.165 52.6128 25.5 52.6128C15.835 52.6128 8 52.162 8 51.6059C8 51.0498 15.835 50.599 25.5 50.599C35.165 50.599 43 51.0498 43 51.6059Z" fill="#000072"/>
</g>
</g>
<path d="M40.2299 50.3467C39.5354 51.0689 38.5166 51.4751 37.4527 51.4751H13.5458C12.4819 51.4751 11.463 51.0689 10.7685 50.3467C10.3848 49.9475 10.1012 49.5028 9.91043 49.0479C9.90971 49.0479 9.90971 49.0479 9.90971 49.0473C9.30954 47.6196 9.61534 46.0876 10.5728 45.5365C12.1804 44.61 13.42 45.7422 13.42 45.7422C13.5572 45.4532 13.743 45.2027 13.9509 44.988C14.734 44.1768 15.8314 43.868 15.8314 43.868C15.2348 40.7994 16.5666 38.0191 16.5666 38.0191C16.5666 38.0191 19.8483 40.2432 25.4992 40.2432C31.1501 40.2432 34.4318 38.0191 34.4318 38.0191C34.4318 38.0191 35.7636 40.7994 35.167 43.868C35.167 43.868 36.924 44.3627 37.5784 45.7422C37.5784 45.7422 38.8181 44.61 40.4257 45.5365C41.6882 46.2638 41.8175 48.6968 40.2299 50.3467Z" fill="#B11313"/>
<g opacity="0.300003">
<g opacity="0.300003">
<path opacity="0.300003" d="M14.377 48.5708C14.5985 46.6479 13.4238 45.8181 13.4238 45.8181C13.561 45.5291 13.7468 45.2786 13.9547 45.0639C15.7767 47.0182 14.377 48.5708 14.377 48.5708Z" fill="#000072"/>
</g>
</g>
<g opacity="0.300003">
<g opacity="0.300003">
<path opacity="0.300003" d="M36.6347 48.5708C36.4132 46.6479 37.5878 45.8181 37.5878 45.8181C37.4506 45.5291 37.2649 45.2786 37.057 45.0639C35.235 47.0182 36.6347 48.5708 36.6347 48.5708Z" fill="#000072"/>
</g>
</g>
<g opacity="0.300003">
<g opacity="0.300003">
<path opacity="0.300003" d="M36.8213 50.1848C36.651 50.1468 36.4755 50.1337 36.3012 50.1509C36.0527 50.1753 35.6252 50.2133 34.9982 50.2554C34.0545 50.3189 33.2303 49.6829 33.1659 48.8362C33.1382 48.4724 33.1989 48.19 33.2209 48.1026C32.9745 49.0474 32.5194 49.9178 32.242 50.3951C30.8335 50.4478 29.0495 50.4906 26.8434 50.5032C26.7244 46.6804 29.2007 43.096 29.2007 43.096C25.4065 45.8179 21.8108 43.096 21.8108 43.096C24.3144 47.0811 24.1841 50.3372 24.1841 50.3372L24.6057 50.5053C22.1966 50.4962 20.2699 50.4512 18.7695 50.3952C18.492 49.9178 18.037 49.0474 17.7905 48.1026C17.8134 48.1935 17.8781 48.4954 17.8417 48.8804C17.7634 49.709 16.9385 50.3177 16.0139 50.2555C15.3865 50.2133 14.9588 50.1754 14.7103 50.1509C14.5359 50.1337 14.3604 50.1468 14.1902 50.1848C11.47 50.7921 9.96259 49.177 9.91406 49.1236C10.1048 49.5785 10.3885 50.0232 10.7722 50.4224C11.4667 51.1445 12.4855 51.5508 13.5494 51.5508H25.5057H37.462C38.5259 51.5508 39.5448 51.1445 40.2393 50.4224C40.6229 50.0232 40.9066 49.5785 41.0974 49.1236C41.0488 49.177 39.5415 50.7921 36.8213 50.1848Z" fill="#000072"/>
</g>
</g>
<g opacity="0.300003">
<g opacity="0.300003">
<path opacity="0.300003" d="M17.785 48.103C17.7803 48.0844 17.7773 48.0742 17.7773 48.0742C17.7798 48.0838 17.7825 48.0934 17.785 48.103Z" fill="#000072"/>
</g>
</g>
<g opacity="0.300003">
<g opacity="0.300003">
<path opacity="0.300003" d="M33.2207 48.103C33.2232 48.0934 33.2259 48.0839 33.2283 48.0742C33.2283 48.0742 33.2254 48.0844 33.2207 48.103Z" fill="#000072"/>
</g>
</g>
<path d="M25.4962 51.3287H37.4526C38.4556 51.3287 39.3995 50.9455 40.0424 50.2774C40.873 49.4143 41.2825 48.219 41.1113 47.1581C41.011 46.5369 40.7124 46.0416 40.2919 45.7992C38.8701 44.9795 37.7997 45.933 37.7548 45.9739C37.6969 46.0269 37.6134 46.0505 37.532 46.0366C37.4508 46.0228 37.3825 45.9735 37.3502 45.9053C36.7473 44.6343 35.109 44.1607 35.0925 44.156C34.974 44.1227 34.9013 44.0157 34.9227 43.9059C35.3971 41.4673 34.6134 39.1858 34.3133 38.4382C33.4148 38.965 30.3231 40.5414 25.4991 40.5414C20.6751 40.5414 17.5833 38.965 16.6849 38.4382C16.3848 39.1858 15.601 41.4673 16.0755 43.9059C16.0968 44.0157 16.0242 44.1227 15.9056 44.156C15.8894 44.1607 14.2484 44.6394 13.648 45.9053C13.6156 45.9735 13.5474 46.0228 13.4661 46.0366C13.3849 46.0505 13.3013 46.0269 13.2433 45.9739C13.1986 45.9337 12.119 44.9847 10.7063 45.7992C10.2858 46.0416 9.98712 46.5369 9.88689 47.1581C9.71567 48.219 10.1252 49.4143 10.9557 50.2774C11.5986 50.9455 12.5426 51.3287 13.5456 51.3287H25.4962ZM37.4526 51.7729H13.5456C12.3984 51.7729 11.3178 51.3336 10.5807 50.5676C9.65915 49.6099 9.20543 48.2791 9.39662 47.0945C9.51918 46.3349 9.88916 45.7421 10.4384 45.4255C11.7455 44.672 12.8484 45.1641 13.3331 45.4706C13.9478 44.4611 15.0884 43.966 15.5539 43.7989C15.0355 40.7758 16.2844 38.1209 16.3388 38.0072C16.3689 37.9444 16.4294 37.8976 16.503 37.8801C16.5767 37.8626 16.6551 37.8764 16.7158 37.9176C16.7479 37.9393 20.0067 40.0971 25.4991 40.0971C30.9915 40.0971 34.2503 37.9393 34.2826 37.9175C34.3434 37.8764 34.4219 37.8627 34.4953 37.8802C34.5688 37.8977 34.6293 37.9445 34.6593 38.0072C34.7138 38.1209 35.9626 40.7758 35.4442 43.7989C35.9098 43.966 37.0504 44.4611 37.6651 45.4706C38.1497 45.1641 39.2525 44.6718 40.5598 45.4255C41.109 45.7421 41.479 46.3348 41.6016 47.0945C41.7928 48.279 41.339 49.6099 40.4175 50.5676C39.6804 51.3336 38.5997 51.7729 37.4526 51.7729Z" fill="#000072"/>
<path d="M13.5599 45.6377C13.5871 45.6544 13.5998 45.6635 13.6185 45.6759C13.6362 45.6877 13.6506 45.699 13.6668 45.7107C13.6989 45.734 13.7261 45.7585 13.7553 45.7828C13.7851 45.8066 13.8097 45.8329 13.8365 45.8583C13.8635 45.8835 13.8888 45.9097 13.9125 45.9365C14.0112 46.0427 14.0942 46.157 14.1682 46.275C14.3165 46.5112 14.415 46.7658 14.4835 47.0221C14.5503 47.2795 14.575 47.5409 14.575 47.7989C14.5755 47.9279 14.5595 48.0565 14.5497 48.1836C14.5283 48.3105 14.505 48.4364 14.4754 48.5605C14.4697 48.5842 14.4437 48.5993 14.4173 48.5942C14.3973 48.5904 14.3827 48.576 14.3794 48.5589L14.3788 48.5558C14.3545 48.4312 14.3394 48.3083 14.3212 48.1865L14.2857 48.0052C14.2727 47.9452 14.2678 47.8847 14.2501 47.8259C14.2168 47.7082 14.199 47.5892 14.157 47.4754C14.1387 47.4182 14.1243 47.3602 14.1044 47.3039L14.0405 47.1367C13.9524 46.9161 13.8448 46.7051 13.7151 46.5101C13.6813 46.4623 13.6497 46.4128 13.613 46.3675L13.56 46.2981L13.5031 46.2321C13.467 46.1866 13.4252 46.1465 13.386 46.1055C13.3658 46.086 13.3458 46.0648 13.3254 46.0474C13.3156 46.0385 13.3052 46.028 13.2959 46.0202C13.2877 46.0131 13.2742 46.0017 13.2733 46.0001L13.2198 45.9038C13.1624 45.8004 13.2093 45.6749 13.3246 45.6234C13.4027 45.5885 13.4925 45.5968 13.5599 45.6377Z" fill="#000072"/>
<path d="M37.7139 45.9991C37.7129 46.0008 37.6994 46.0121 37.6912 46.0193C37.682 46.027 37.6715 46.0376 37.6617 46.0465C37.6413 46.0638 37.6213 46.085 37.6011 46.1045C37.5619 46.1456 37.5201 46.1856 37.484 46.2311L37.4272 46.2971L37.3741 46.3666C37.3374 46.4119 37.3058 46.4613 37.272 46.5091C37.1423 46.7041 37.0347 46.9151 36.9466 47.1357L36.8827 47.3029C36.8628 47.3592 36.8485 47.4172 36.8302 47.4745C36.7882 47.5882 36.7703 47.7072 36.7371 47.8249C36.7193 47.8837 36.7144 47.9443 36.7015 48.0042L36.666 48.1855C36.6477 48.3073 36.6326 48.4302 36.6083 48.5549L36.6077 48.5579C36.6031 48.5818 36.5778 48.5977 36.5512 48.5936C36.5309 48.5904 36.5158 48.5765 36.5117 48.5596C36.4821 48.4355 36.4588 48.3096 36.4374 48.1826C36.4277 48.0555 36.4116 47.9269 36.4121 47.798C36.4122 47.5399 36.4368 47.2786 36.5036 47.0211C36.5721 46.7648 36.6706 46.5102 36.8189 46.2741C36.8929 46.156 36.9759 46.0417 37.0746 45.9356C37.0983 45.9087 37.1237 45.8826 37.1506 45.8573C37.1774 45.8319 37.202 45.8056 37.2318 45.7818C37.261 45.7576 37.2882 45.733 37.3204 45.7097C37.3366 45.698 37.3509 45.6868 37.3686 45.675C37.3874 45.6626 37.4 45.6534 37.4272 45.6368C37.5337 45.5717 37.6787 45.5964 37.7513 45.6918C37.8004 45.7565 37.8036 45.8371 37.7675 45.9026L37.7139 45.9991Z" fill="#000072"/>
<path d="M16.079 43.9176L16.0991 44.0951L16.1244 44.2936C16.1332 44.3613 16.1451 44.4292 16.1516 44.5004C16.1588 44.5714 16.1631 44.6451 16.1591 44.7246L16.1591 44.7249C16.1585 44.7374 16.1467 44.7471 16.1327 44.7466C16.1277 44.7463 16.1231 44.7449 16.1193 44.7424C16.0466 44.6965 15.9839 44.6438 15.9297 44.5863C15.8742 44.5293 15.8288 44.467 15.7845 44.4032C15.7412 44.3389 15.7018 44.2722 15.6675 44.2022C15.6514 44.167 15.6346 44.1315 15.6216 44.0941C15.6146 44.0756 15.6083 44.0565 15.6026 44.0369C15.5965 44.0158 15.5924 44.0003 15.5871 43.9704C15.5656 43.8491 15.6578 43.7352 15.793 43.716C15.9281 43.6967 16.0552 43.7794 16.0766 43.9006C16.0773 43.9045 16.0779 43.9084 16.0783 43.9122L16.079 43.9176Z" fill="#000072"/>
<path d="M35.4173 43.9704C35.412 44.0003 35.4079 44.0158 35.4018 44.0369C35.3961 44.0565 35.3898 44.0756 35.3828 44.0941C35.3698 44.1315 35.3531 44.167 35.3369 44.2023C35.3026 44.2722 35.2632 44.339 35.2199 44.4032C35.1756 44.467 35.1302 44.5293 35.0747 44.5863C35.0205 44.6438 34.9579 44.6965 34.8851 44.7424C34.8737 44.7497 34.8579 44.7472 34.8499 44.737C34.847 44.7333 34.8455 44.7291 34.8453 44.7249L34.8453 44.7246C34.8413 44.6451 34.8456 44.5715 34.8529 44.5004C34.8594 44.4292 34.8712 44.3613 34.8801 44.2937L34.9053 44.0951L34.9255 43.9176L34.926 43.9129C34.9399 43.7908 35.0615 43.7019 35.1977 43.7144C35.3339 43.7268 35.433 43.8359 35.4191 43.958C35.4187 43.9619 35.418 43.9665 35.4173 43.9704Z" fill="#000072"/>
<path d="M17.2775 46.1194C17.2775 46.1194 16.1436 45.3308 15.8297 43.944C15.8297 43.944 15.1774 43.6484 14.7266 44.4484C14.7266 44.4484 15.2466 46.8907 17.7774 48.0742C17.7774 48.0742 17.4117 46.8169 17.2775 46.1194Z" fill="#0096F2"/>
<path d="M14.9883 44.4802C15.0904 44.8532 15.6404 46.5561 17.3909 47.6106C17.2801 47.2075 17.1333 46.6506 17.0492 46.2383C16.7866 46.0342 15.9319 45.2959 15.6179 44.1154C15.4754 44.0934 15.2187 44.1191 14.9883 44.4802ZM17.777 48.2964C17.7379 48.2964 17.6986 48.2881 17.6625 48.2712C15.0555 47.052 14.5051 44.5941 14.4829 44.4901C14.4727 44.4419 14.4805 44.3921 14.5052 44.3483C14.7868 43.8485 15.155 43.7069 15.4143 43.6761C15.7013 43.6417 15.9174 43.7351 15.9411 43.7459C16.0088 43.7765 16.0571 43.8333 16.0721 43.8999C16.3628 45.1841 17.4187 45.9367 17.4293 45.9442C17.4777 45.9781 17.5108 46.0273 17.5212 46.0817C17.6521 46.7619 18.0131 48.0057 18.0167 48.0182C18.0414 48.1032 18.0079 48.1933 17.9313 48.248C17.8866 48.28 17.832 48.2964 17.777 48.2964Z" fill="#000072"/>
<path d="M33.7264 46.1194C33.7264 46.1194 34.8603 45.3308 35.1742 43.944C35.1742 43.944 35.8265 43.6484 36.2774 44.4484C36.2774 44.4484 35.7573 46.8907 33.2266 48.0742C33.2266 48.0742 33.5923 46.8169 33.7264 46.1194Z" fill="#0096F2"/>
<path d="M33.9521 46.2383C33.8679 46.6506 33.7211 47.2075 33.6103 47.6106C35.3608 46.5562 35.9108 44.8534 36.013 44.4802C35.8735 44.2609 35.7085 44.1386 35.5218 44.1165C35.4695 44.1102 35.4215 44.1129 35.3825 44.1184C35.0679 45.2972 34.2145 46.0343 33.9521 46.2383ZM33.2243 48.2964C33.1693 48.2964 33.1147 48.28 33.07 48.248C32.9933 48.1933 32.9599 48.1031 32.9846 48.0182C32.9882 48.0057 33.3492 46.7619 33.48 46.0817C33.4905 46.0271 33.5233 45.9781 33.572 45.9442C33.5826 45.9367 34.6385 45.1841 34.9291 43.8999C34.9442 43.8333 34.9925 43.7765 35.0602 43.7459C35.0838 43.7351 35.2999 43.6417 35.5869 43.6761C35.8462 43.7069 36.2145 43.8485 36.4961 44.3483C36.5208 44.3921 36.5286 44.4419 36.5184 44.4901C36.4962 44.5941 35.9458 47.052 33.3388 48.2712C33.3027 48.2881 33.2634 48.2964 33.2243 48.2964Z" fill="#000072"/>
<path d="M20.6953 40.4453C20.6953 40.4453 21.121 41.5276 20.9985 43.1066L22.4013 44.2012C22.4013 44.2012 22.7678 42.2935 22.1435 40.7091L20.6953 40.4453Z" fill="#0096F2"/>
<path d="M21.2491 43.0111L22.2083 43.7596C22.2732 43.1508 22.3286 41.9573 21.95 40.9014L21.039 40.7354C21.1568 41.1747 21.3139 41.983 21.2491 43.0111ZM22.3969 44.4233C22.3381 44.4233 22.2801 44.4045 22.2343 44.3688L20.8316 43.2742C20.773 43.2285 20.7417 43.1607 20.7471 43.0913C20.8642 41.5824 20.4614 40.5295 20.4573 40.519C20.4278 40.4436 20.4458 40.3597 20.5044 40.2995C20.563 40.2393 20.6532 40.2122 20.7403 40.2277L22.1884 40.4914C22.2737 40.507 22.3437 40.5615 22.3726 40.6351C23.0112 42.2555 22.6564 44.1587 22.641 44.2389C22.6258 44.318 22.5643 44.3835 22.48 44.4104C22.4529 44.4191 22.4248 44.4233 22.3969 44.4233Z" fill="#000072"/>
<path d="M30.307 40.4453C30.307 40.4453 29.8813 41.5276 30.0038 43.1066L28.6011 44.2012C28.6011 44.2012 28.2345 42.2935 28.8588 40.7091L30.307 40.4453Z" fill="#0096F2"/>
<path d="M29.0492 40.9014C28.6699 41.9592 28.7254 43.1517 28.7906 43.7597L29.7501 43.0111C29.6853 41.9829 29.8424 41.1747 29.9601 40.7354L29.0492 40.9014ZM28.6023 44.4233C28.5744 44.4233 28.5463 44.4191 28.5192 44.4104C28.4349 44.3835 28.3734 44.318 28.3582 44.2389C28.3428 44.1587 27.988 42.2555 28.6265 40.6351C28.6555 40.5615 28.7255 40.507 28.8108 40.4914L30.2589 40.2277C30.3463 40.2115 30.4366 40.2393 30.4951 40.2996C30.5536 40.3599 30.5714 40.4438 30.5419 40.5192C30.5354 40.5358 30.1354 41.5869 30.2521 43.0913C30.2575 43.1607 30.2262 43.2285 30.1676 43.2742L28.7649 44.3688C28.7191 44.4045 28.6611 44.4233 28.6023 44.4233Z" fill="#000072"/>
<path d="M24.1011 50.8568C23.7481 52.4113 21.7361 53.1226 20.3221 52.1698C19.2154 51.4246 18 49.7201 17.2491 45.9826C17.1776 45.6244 17.1098 45.247 17.0469 44.8504L17.5249 44.4441L20.6936 41.7491C20.6936 41.7491 23.8153 46.0832 24.1611 49.4055V49.4062C24.2154 49.9207 24.2025 50.4109 24.1011 50.8568Z" fill="#B11313"/>
<g opacity="0.300003">
<g opacity="0.300003">
<path opacity="0.300003" d="M24.1002 50.8568C23.7472 52.4113 21.7352 53.1226 20.3212 52.1698C19.2145 51.4246 17.9991 49.7201 17.2482 45.9826C16.1915 45.4117 15.8285 43.9437 15.8285 43.9437C15.3726 41.9945 15.8985 40.1978 15.8985 40.1978C15.7984 42.5703 16.8485 43.7021 17.2816 44.0654C17.4023 44.1666 17.4866 44.2972 17.5234 44.4417C17.5236 44.4425 17.5238 44.4433 17.524 44.4441C18.2978 47.5146 19.5939 51.2554 21.4744 51.5232C23.2899 51.7815 24.0723 49.6606 24.1602 49.4062C24.2145 49.9207 24.2016 50.4109 24.1002 50.8568Z" fill="#000072"/>
</g>
</g>
<path d="M20.9664 41.542C21.3272 41.8944 21.6125 42.2875 21.8712 42.6936C21.9996 42.8971 22.1167 43.1059 22.233 43.3151C22.3494 43.5242 22.4633 43.7345 22.5744 43.9461C23.0191 44.792 23.424 45.6571 23.7603 46.5484C24.097 47.4387 24.3681 48.3586 24.4669 49.3163C24.5145 49.7944 24.5174 50.2836 24.4268 50.7733C24.4072 50.8936 24.3785 51.0226 24.3344 51.1469C24.2944 51.272 24.2377 51.3928 24.1762 51.5111C24.048 51.7458 23.8771 51.9623 23.6733 52.1495C23.2616 52.5203 22.7175 52.7703 22.1399 52.8438C21.8518 52.8842 21.5559 52.8754 21.2688 52.8298C20.9819 52.7809 20.7049 52.6885 20.4516 52.5613C20.3277 52.4956 20.203 52.4233 20.0953 52.3437L19.9339 52.225C19.8793 52.1859 19.8325 52.1406 19.7816 52.0987C19.7324 52.0554 19.6801 52.0143 19.6337 51.969L19.4956 51.8326C19.4002 51.7436 19.3212 51.6448 19.2356 51.5499C18.9049 51.1632 18.6412 50.7427 18.4097 50.3139C18.1744 49.8855 17.9945 49.44 17.8203 48.9947C17.6586 48.546 17.5113 48.0942 17.3902 47.6378C17.3303 47.4095 17.266 47.1821 17.2171 46.9521C17.1668 46.7224 17.1065 46.4943 17.0699 46.2627C16.9889 45.8006 16.9509 45.3322 16.9955 44.8571C16.998 44.8302 17.0243 44.8103 17.0543 44.8125C17.0751 44.8141 17.0923 44.8261 17.0999 44.8423L17.1005 44.8437C17.2035 45.0645 17.2814 45.2872 17.3486 45.5112C17.4147 45.7354 17.4833 45.9581 17.5352 46.1835C17.5849 46.4095 17.6432 46.6332 17.698 46.8577C17.75 47.083 17.8171 47.3043 17.8797 47.5268C18.0063 47.9713 18.1577 48.4085 18.3219 48.8403C18.498 49.2673 18.6789 49.6937 18.9089 50.0949C19.1342 50.4977 19.3912 50.8842 19.6932 51.2323C19.7712 51.317 19.8436 51.407 19.9289 51.4845L20.0525 51.6049C20.0938 51.6449 20.1398 51.6796 20.1831 51.7173C20.2278 51.7534 20.2692 51.7936 20.3164 51.8264L20.4558 51.9273C20.5483 51.9948 20.6427 52.0471 20.7413 52.0993C20.9404 52.1969 21.1549 52.2666 21.3766 52.3029C21.5986 52.336 21.827 52.3422 22.0501 52.3087C22.4978 52.2494 22.919 52.0497 23.2354 51.7623C23.393 51.6178 23.5253 51.4513 23.6253 51.2698C23.6727 51.178 23.7179 51.0847 23.749 50.9866C23.7839 50.8898 23.8063 50.7908 23.8243 50.6816C23.9046 50.2556 23.9054 49.8094 23.8621 49.3645C23.8182 48.9189 23.73 48.4729 23.6158 48.0308C23.5023 47.5883 23.3604 47.1495 23.2025 46.7148C22.886 45.845 22.4992 44.9921 22.0716 44.1558C21.9648 43.9465 21.8551 43.7384 21.7431 43.5313C21.6315 43.324 21.5141 43.1193 21.4053 42.9105C21.1856 42.494 20.9787 42.0706 20.8154 41.623L20.8149 41.6215C20.7995 41.5792 20.8252 41.5337 20.8723 41.5199C20.9069 41.5098 20.9433 41.5195 20.9664 41.542Z" fill="#000072"/>
<path d="M17.9431 48.793C17.8764 48.793 17.8098 48.769 17.761 48.7216C17.6683 48.6315 17.6744 48.4911 17.7748 48.4079C17.8667 48.3317 20.0637 46.5393 23.4275 46.3138C23.5635 46.3039 23.6827 46.3964 23.6929 46.5187C23.7031 46.641 23.6008 46.7477 23.4644 46.7568C20.2791 46.9704 18.1323 48.7166 18.111 48.7341C18.0634 48.7735 18.0031 48.793 17.9431 48.793Z" fill="#000072"/>
<path d="M26.9002 50.8573C27.2532 52.4118 29.2652 53.1231 30.6792 52.1703C31.786 51.425 33.0013 49.7206 33.7522 45.9831C33.8237 45.6249 33.8916 45.2475 33.9544 44.8508L33.4764 44.4446L30.3077 41.7496C30.3077 41.7496 27.186 46.0837 26.8402 49.406V49.4067C26.7859 49.9212 26.7988 50.4114 26.9002 50.8573Z" fill="#B11313"/>
<g opacity="0.300003">
<g opacity="0.300003">
<path opacity="0.300003" d="M26.8924 50.8568C27.2454 52.4113 29.2574 53.1226 30.6714 52.1698C31.7781 51.4246 32.9935 49.7201 33.7444 45.9826C34.8012 45.4117 35.1641 43.9437 35.1641 43.9437C35.62 41.9945 35.0941 40.1978 35.0941 40.1978C35.1942 42.5703 34.1441 43.7021 33.711 44.0654C33.5904 44.1666 33.506 44.2972 33.4693 44.4417C33.469 44.4425 33.4688 44.4433 33.4686 44.4441C32.6948 47.5146 31.3987 51.2554 29.5182 51.5232C27.7027 51.7815 26.9203 49.6606 26.8324 49.4062C26.7781 49.9207 26.791 50.4109 26.8924 50.8568Z" fill="#000072"/>
</g>
</g>
<path d="M30.1861 41.623C30.0229 42.0706 29.8159 42.494 29.5962 42.9105C29.4875 43.1193 29.37 43.324 29.2585 43.5314C29.1464 43.7384 29.0367 43.9465 28.93 44.1557C28.5024 44.9921 28.1156 45.845 27.7991 46.7148C27.6411 47.1495 27.4993 47.5883 27.3858 48.0308C27.2716 48.4729 27.1834 48.9189 27.1395 49.3645C27.0962 49.8094 27.097 50.2556 27.1773 50.6816C27.1953 50.7908 27.2176 50.8898 27.2526 50.9866C27.2837 51.0846 27.3289 51.178 27.3762 51.2698C27.4763 51.4513 27.6086 51.6178 27.7662 51.7623C28.0826 52.0497 28.5038 52.2493 28.9515 52.3087C29.1746 52.3422 29.403 52.336 29.625 52.3029C29.8467 52.2666 30.0612 52.1969 30.2603 52.0993C30.3589 52.0471 30.4533 51.9948 30.5457 51.9272L30.6852 51.8264C30.7324 51.7936 30.7738 51.7534 30.8185 51.7173C30.8618 51.6796 30.9078 51.6449 30.9491 51.6049L31.0727 51.4845C31.158 51.407 31.2303 51.317 31.3084 51.2323C31.6104 50.8842 31.8674 50.4976 32.0927 50.0949C32.3227 49.6937 32.5036 49.2673 32.6797 48.8403C32.8439 48.4084 32.9953 47.9713 33.1219 47.5268C33.1845 47.3043 33.2515 47.083 33.3036 46.8577C33.3584 46.6332 33.4166 46.4095 33.4663 46.1835C33.5183 45.9581 33.5868 45.7354 33.653 45.5112C33.7202 45.2872 33.7981 45.0644 33.9011 44.8437L33.9017 44.8423C33.9133 44.8175 33.9452 44.8057 33.9729 44.8161C33.9922 44.8234 34.0044 44.8396 34.0061 44.8571C34.0507 45.3322 34.0127 45.8006 33.9316 46.2627C33.895 46.4943 33.8347 46.7224 33.7844 46.9521C33.7356 47.1821 33.6713 47.4095 33.6114 47.6378C33.4903 48.0942 33.343 48.546 33.1813 48.9947C33.0071 49.44 32.8272 49.8855 32.5919 50.3139C32.3604 50.7427 32.0966 51.1632 31.766 51.5499C31.6804 51.6448 31.6013 51.7436 31.506 51.8326L31.3678 51.969C31.3215 52.0143 31.2692 52.0554 31.22 52.0987C31.169 52.1406 31.1222 52.1859 31.0677 52.2249L30.9063 52.3437C30.7986 52.4233 30.6739 52.4956 30.5499 52.5613C30.2967 52.6885 30.0196 52.7809 29.7327 52.8298C29.4456 52.8754 29.1498 52.8842 28.8617 52.8438C28.2841 52.7703 27.74 52.5203 27.3282 52.1495C27.1245 51.9623 26.9536 51.7458 26.8253 51.5111C26.7639 51.3928 26.7071 51.272 26.6671 51.1469C26.623 51.0226 26.5944 50.8935 26.5748 50.7733C26.4842 50.2836 26.4871 49.7944 26.5346 49.3163C26.6335 48.3586 26.9046 47.4387 27.2412 46.5484C27.5776 45.6571 27.9825 44.792 28.4272 43.9461C28.5382 43.7345 28.6522 43.5242 28.7685 43.3151C28.8849 43.1059 29.002 42.8971 29.1304 42.6936C29.3891 42.2875 29.6743 41.8944 30.0351 41.542C30.0687 41.5092 30.1255 41.507 30.162 41.5371C30.1888 41.5592 30.1973 41.5924 30.1867 41.6214L30.1861 41.623Z" fill="#000072"/>
<path d="M33.0592 48.793C32.9991 48.793 32.9388 48.7735 32.8912 48.734C32.8699 48.7164 30.7231 46.9702 27.5378 46.7567C27.4014 46.7475 27.2991 46.6409 27.3093 46.5186C27.3195 46.3962 27.4385 46.3039 27.5747 46.3136C30.9385 46.5392 33.1355 48.3315 33.2274 48.4078C33.3278 48.491 33.334 48.6316 33.2411 48.7216C33.1923 48.769 33.1258 48.793 33.0592 48.793Z" fill="#000072"/>
<path d="M25.5041 39.6031C31.982 39.6031 34.5541 37.0653 34.5541 37.0653C34.5541 37.0653 34.662 37.2838 34.7145 37.5944C34.8015 38.1086 34.558 38.6245 34.0943 38.9369C33.075 39.6236 30.4796 40.9321 25.5007 40.9321C20.5219 40.9321 17.9264 39.6236 16.9072 38.9369C16.4435 38.6245 16.2 38.1086 16.287 37.5944C16.3395 37.2838 16.4474 37.0653 16.4474 37.0653C16.4474 37.0653 19.0195 39.6031 25.4974 39.6031" fill="#751313"/>
<g opacity="0.300003">
<g opacity="0.300003">
<path opacity="0.300003" d="M34.6928 37.4754C34.6094 37.7979 34.4008 38.091 34.0962 38.2961C33.077 38.9828 30.4816 40.2914 25.5027 40.2914C20.5238 40.2914 17.9284 38.9828 16.9091 38.2961C16.6046 38.091 16.3959 37.7979 16.3126 37.4754C16.304 37.5132 16.2959 37.5529 16.2889 37.5944C16.2019 38.1086 16.4454 38.6245 16.9091 38.9369C17.9284 39.6236 20.5238 40.9321 25.5027 40.9321C30.4816 40.9321 33.077 39.6236 34.0962 38.9369C34.5599 38.6245 34.8034 38.1086 34.7165 37.5944C34.7094 37.5529 34.7014 37.5132 34.6928 37.4754Z" fill="#000072"/>
</g>
</g>
<path d="M25.5005 41.1543C20.5283 41.1543 17.889 39.8763 16.7582 39.1145C16.2161 38.7492 15.9416 38.154 16.0419 37.5612C16.0987 37.2249 16.2158 36.9854 16.2207 36.9754C16.2547 36.9067 16.325 36.858 16.4076 36.8461C16.4902 36.8339 16.5741 36.8603 16.6305 36.9159C16.6553 36.9402 19.2231 39.381 25.4972 39.381V39.8253C20.1385 39.8253 17.4203 38.1301 16.565 37.4699C16.5527 37.5186 16.5412 37.5715 16.5316 37.6277C16.4587 38.0587 16.6596 38.4924 17.0558 38.7593C18.1371 39.4878 20.6722 40.71 25.5005 40.71C30.3289 40.71 32.864 39.4878 33.9454 38.7593C34.3415 38.4924 34.5423 38.0588 34.4694 37.6277C34.4599 37.5715 34.4484 37.5186 34.436 37.4699C33.5808 38.1301 30.8625 39.8253 25.5039 39.8253V39.381C31.7993 39.381 34.3456 36.9405 34.3706 36.9159C34.4269 36.8603 34.5108 36.834 34.5934 36.8461C34.6761 36.858 34.7464 36.9067 34.7803 36.9754C34.7853 36.9854 34.9024 37.2249 34.9592 37.5612C35.0595 38.154 34.785 38.7493 34.2429 39.1145C33.1122 39.8763 30.4728 41.1543 25.5005 41.1543Z" fill="#000072"/>
<path d="M16.457 38.9443L20.4511 47.0981" stroke="#000072" stroke-width="0.2" stroke-miterlimit="10"/>
<path d="M30.3848 47.0981L34.4636 38.9443" stroke="#000072" stroke-width="0.2" stroke-miterlimit="10"/>
<path fill-rule="evenodd" clip-rule="evenodd" d="M25.2077 42.2737C25.2061 42.2933 25.1928 42.3109 25.1839 42.3302C25.1754 42.3489 25.1675 42.369 25.1601 42.3886C25.1408 42.4398 25.1228 42.4902 25.1244 42.5565C25.1903 42.5643 25.2733 42.5585 25.3327 42.551C25.3652 42.5639 25.3861 42.584 25.4161 42.5984C25.4104 42.5737 25.4375 42.569 25.4607 42.5619C25.4504 42.5726 25.4344 42.5799 25.4399 42.6003C25.4534 42.6058 25.4556 42.5911 25.4667 42.5893C25.482 42.6 25.5014 42.5994 25.5173 42.5893C25.5286 42.5908 25.5256 42.6013 25.5381 42.6021C25.5557 42.5879 25.5305 42.5725 25.5232 42.5619C25.5453 42.5691 25.5704 42.5744 25.5679 42.5966C25.5919 42.5876 25.6212 42.5661 25.6452 42.551C25.7072 42.559 25.7865 42.5627 25.8595 42.5583C25.857 42.4473 25.8131 42.3617 25.7702 42.2755C25.7821 42.2746 25.782 42.2842 25.7851 42.2883C25.8294 42.347 25.8688 42.414 25.9012 42.4853C25.9059 42.4957 25.9138 42.5098 25.919 42.5236C25.9236 42.5358 25.9332 42.5569 25.9309 42.5638C25.9258 42.5787 25.8855 42.5838 25.8773 42.5966C25.8526 42.5787 25.7812 42.5838 25.7137 42.582C25.6945 42.5815 25.6689 42.5781 25.6571 42.5802C25.6312 42.5847 25.6198 42.608 25.6065 42.6203C25.6432 42.6219 25.6722 42.6001 25.7047 42.5984C25.7254 42.5974 25.7556 42.6069 25.7821 42.6112C25.8588 42.6237 25.9444 42.6342 26.0143 42.6477C26.0185 42.501 25.957 42.3787 25.8744 42.2791C25.9565 42.3486 26.0118 42.4299 26.0529 42.5254C26.06 42.542 26.0662 42.5577 26.0708 42.5747C26.0773 42.5986 26.0776 42.6281 26.0976 42.6459C26.0729 42.6624 26.0432 42.6758 26.0172 42.6915C25.9441 42.6647 25.8028 42.6262 25.6839 42.6331C25.6554 42.6348 25.6303 42.6435 25.6095 42.655C25.6458 42.6639 25.671 42.6647 25.7196 42.6641C25.7317 42.664 25.7492 42.6609 25.7583 42.6623C25.7686 42.6639 25.7852 42.677 25.8 42.686C25.8859 42.7387 25.9628 42.7773 26.0648 42.8192C26.0967 42.8323 26.1147 42.8456 26.1511 42.8283C26.1572 43.0015 26.0822 43.1293 25.9904 43.2461C25.9797 43.2598 25.973 43.2756 25.9547 43.2863C26.0237 43.1865 26.0767 43.0678 26.0767 42.9287C26.0767 42.9141 26.0813 42.8959 26.0767 42.8831C26.0703 42.8648 26.0235 42.8455 25.9964 42.8302C25.9195 42.7866 25.8583 42.7561 25.7732 42.7152C25.7565 42.7072 25.7423 42.6964 25.7286 42.6933C25.714 42.6901 25.6912 42.6894 25.675 42.6878C25.6547 42.6859 25.6352 42.6853 25.6184 42.6842C25.6513 42.7059 25.7035 42.7327 25.7494 42.7535C25.7577 42.7581 25.7665 42.7519 25.7762 42.7517C25.787 42.9551 25.7624 43.1543 25.669 43.3027C25.6467 43.3381 25.622 43.3729 25.5827 43.3994C25.7096 43.259 25.7192 43.0178 25.6928 42.8064C25.7198 42.7921 25.7081 42.7802 25.6839 42.7626C25.6575 42.7435 25.6105 42.7155 25.5798 42.7061C25.5776 42.7156 25.5829 42.7249 25.5887 42.7335C25.5945 42.742 25.6074 42.7495 25.6095 42.7572C25.614 42.7735 25.6032 42.8093 25.5976 42.8283C25.5792 42.8913 25.5404 42.9604 25.5053 43.0071C25.493 43.0062 25.5017 42.9924 25.4934 42.9889C25.4802 42.9893 25.4882 43.0027 25.4815 43.0071C25.4406 42.9643 25.4056 42.8933 25.3863 42.8283C25.3794 42.8051 25.3687 42.7771 25.3744 42.7572C25.3789 42.7413 25.4068 42.7269 25.4042 42.7079C25.3769 42.7117 25.3515 42.7284 25.3298 42.7426C25.3081 42.7567 25.2856 42.772 25.2703 42.7882C25.2721 42.7962 25.2848 42.7975 25.2881 42.8046C25.2686 43.0185 25.2692 43.2592 25.4012 43.3976C25.3873 43.3964 25.3808 43.3856 25.3744 43.3793C25.2515 43.2589 25.2185 43.0731 25.2048 42.8812C25.2017 42.8388 25.1986 42.7974 25.2077 42.7554C25.2103 42.7465 25.2256 42.7596 25.2345 42.7535C25.2815 42.7318 25.3238 42.7073 25.3685 42.6842C25.3296 42.6879 25.2873 42.6867 25.2524 42.6951C25.2221 42.7025 25.1889 42.7228 25.1601 42.7371C25.0728 42.7807 24.9807 42.8281 24.9072 42.8776C24.8922 43.0404 24.953 43.1716 25.0262 43.2863C24.9206 43.16 24.8225 43.0196 24.8328 42.8283C24.873 42.8517 24.9343 42.8136 24.9667 42.7991C25.0568 42.7587 25.153 42.7066 25.2226 42.6623C25.273 42.6669 25.3322 42.6632 25.3744 42.6568C25.3218 42.6157 25.187 42.6363 25.1066 42.6513C25.0526 42.6614 25.0022 42.6759 24.9697 42.6915C24.9388 42.6788 24.9151 42.6617 24.8863 42.6477C24.9074 42.6152 24.9119 42.5607 24.928 42.5236C24.9673 42.433 25.0287 42.3528 25.1036 42.2791C25.1016 42.2931 25.0858 42.3052 25.0768 42.3174C25.0116 42.4064 24.9686 42.5166 24.9667 42.6459C25.0355 42.6363 25.1176 42.6245 25.1988 42.6112C25.2253 42.6069 25.2527 42.598 25.2732 42.5984C25.3063 42.5991 25.3374 42.6201 25.3744 42.6203C25.3656 42.6032 25.3488 42.591 25.3298 42.5802C25.2685 42.5845 25.2 42.5777 25.1453 42.5838C25.1397 42.5845 25.1324 42.5865 25.1244 42.5893C25.1251 42.5891 25.1067 42.5966 25.1095 42.5966C25.0972 42.5965 25.0669 42.5702 25.053 42.5674C25.0816 42.4554 25.1461 42.3654 25.2077 42.2737Z" fill="#000072"/>
<path fill-rule="evenodd" clip-rule="evenodd" d="M25.502 41.1552V44.3057V41.1552Z" fill="#000072"/>
<path d="M25.502 41.1552V44.3057" stroke="#000072" stroke-width="0.2" stroke-miterlimit="10"/>
<path d="M24.4042 41.1331C24.4042 41.1331 24.5973 43.714 24.3145 44.1709" stroke="#000072" stroke-width="0.2" stroke-miterlimit="10"/>
<path d="M23.5376 41.0836C23.5376 41.0836 23.973 42.2777 23.3438 43.8906" stroke="#000072" stroke-width="0.2" stroke-miterlimit="10"/>
<path d="M26.5016 41.1544C26.5016 41.1544 26.2997 43.4411 26.5917 44.2197" stroke="#000072" stroke-width="0.2" stroke-miterlimit="10"/>
<path d="M27.531 41.0836C27.531 41.0836 27.0693 43.3512 27.7548 43.8906" stroke="#000072" stroke-width="0.2" stroke-miterlimit="10"/>
<path d="M22.6367 41.5371C22.6367 41.5371 23.0715 41.1649 23.6426 41.5371C23.6426 41.5371 23.9403 41.1677 24.4353 41.5879C24.4353 41.5879 24.7052 41.1278 25.4998 41.5371C25.4998 41.5371 25.8352 41.1525 26.4368 41.5371C26.4368 41.5371 26.9095 41.1101 27.4632 41.5159C27.4632 41.5159 27.9568 41.034 28.3842 41.4644" stroke="#000072" stroke-width="0.2" stroke-miterlimit="10"/>
<path d="M25.4377 42.1281C25.4221 42.1182 25.4067 42.1089 25.3914 42.1001C24.8502 41.789 24.4575 42.1367 24.4575 42.1367C24.056 41.763 23.6837 42.1367 23.6837 42.1367C23.0596 41.4838 22.7227 42.1367 22.7227 42.1367" stroke="#000072" stroke-width="0.2" stroke-miterlimit="10"/>
<path d="M25.4219 42.1352C25.4219 42.1352 25.9152 41.7804 26.4342 42.1352C26.4342 42.1352 26.9384 41.6961 27.3799 42.1548C27.3799 42.1548 28.0352 41.7025 28.2796 42.1456" stroke="#000072" stroke-width="0.2" stroke-miterlimit="10"/>
<path d="M22.7227 43.2273C22.7227 43.2273 23.1231 42.6357 23.5445 43.2775C23.5445 43.2775 24.3002 42.8093 24.461 43.4632C24.461 43.4632 25.0868 43.1779 25.5242 43.6475C25.5242 43.6475 25.9876 43.1614 26.5244 43.5321C26.5244 43.5321 26.8828 42.7887 27.4894 43.3623C27.4894 43.3623 27.8631 42.7424 28.2798 43.096" stroke="#000072" stroke-width="0.2" stroke-miterlimit="10"/>
<path d="M22.6836 43.5817C22.6836 43.5817 23.205 43.1074 23.4331 43.6482C23.4331 43.6482 24.1841 43.3436 24.3938 43.8913C24.3938 43.8913 25.1699 43.5263 25.493 44.1104C25.493 44.1104 25.9522 43.7223 26.5043 43.9859C26.5043 43.9859 27.0116 43.3015 27.5989 43.7055C27.5989 43.7055 28.0168 43.0654 28.2668 43.4639" stroke="#000072" stroke-width="0.2" stroke-miterlimit="10"/>
<path d="M18.1094 48.7336C18.1094 48.7336 20.4205 46.5549 23.3417 46.7652L24.0057 48.5944C24.0057 48.5944 23.288 51.3102 18.763 50.3951L18.1094 48.7336Z" fill="#000072"/>
<path d="M18.1094 48.7336C18.1094 48.7336 20.4205 46.5549 23.3417 46.7652L24.0057 48.5944C24.0057 48.5944 23.288 51.3102 18.763 50.3951L18.1094 48.7336Z" stroke="#000072" stroke-width="0.2" stroke-miterlimit="10"/>
<path d="M26.8906 49.0441L27.5711 46.4492L30.778 47.3235L32.6887 48.2964V49.0441L32.24 50.3953C32.24 50.3953 29.0295 51.3431 26.8906 49.0441Z" fill="#000072"/>
<path d="M26.8906 49.0441L27.5711 46.4492L30.778 47.3235L32.6887 48.2964V49.0441L32.24 50.3953C32.24 50.3953 29.0295 51.3431 26.8906 49.0441Z" stroke="#000072" stroke-width="0.2" stroke-miterlimit="10"/>
<path d="M10.6602 45.5885L13.1289 51.3291" stroke="#000072" stroke-width="0.2" stroke-miterlimit="10"/>
<path d="M10.0195 46.3125C10.0195 46.3125 10.4461 48.9698 12.3083 51.2852" stroke="#000072" stroke-width="0.2" stroke-miterlimit="10"/>
<path d="M11.6621 45.3671C11.6621 45.3671 13.5904 48.3029 13.8883 51.375" stroke="#000072" stroke-width="0.2" stroke-miterlimit="10"/>
<path d="M12.8984 45.5885C12.8984 45.5885 14.0679 47.6792 14.7272 51.3291" stroke="#000072" stroke-width="0.2" stroke-miterlimit="10"/>
<path d="M9.75781 47.5527C9.75781 47.5527 9.76269 46.9648 10.2287 47.1927C10.2287 47.1927 10.4022 46.1645 11.164 46.8173C11.164 46.8173 11.1928 45.7734 12.2575 46.3993C12.2575 46.3993 12.5611 45.6333 13.1988 46.3128C13.1988 46.3128 13.5151 46.156 13.7186 46.5095" stroke="#000072" stroke-width="0.2" stroke-miterlimit="10"/>
<path d="M10.0898 46.6719C10.0898 46.6719 10.2533 45.9115 10.904 46.1634C10.904 46.1634 11.0328 45.5384 11.8908 45.7462C11.8908 45.7462 12.0171 45.3374 13.0352 45.8599" stroke="#000072" stroke-width="0.2" stroke-miterlimit="10"/>
<path d="M9.84766 47.8657C9.84766 47.8657 9.88358 47.2765 10.3806 47.6864C10.3806 47.6864 10.5372 46.6663 11.4056 47.3237C11.4056 47.3237 11.4289 46.3248 12.4393 46.8893C12.4393 46.8893 12.8111 46.3315 13.4591 46.8175C13.4591 46.8175 13.5748 46.5272 13.8982 46.8175" stroke="#000072" stroke-width="0.2" stroke-miterlimit="10"/>
<path d="M9.84766 48.3711C9.84766 48.3711 10.0494 47.8045 10.6013 48.2964C10.6013 48.2964 10.9391 47.3712 11.6617 47.9973C11.6617 47.9973 11.9528 46.7624 12.8391 47.6106C12.8391 47.6106 12.977 46.8042 13.6819 47.4008C13.6819 47.4008 13.7354 46.9057 14.1071 47.3032" stroke="#000072" stroke-width="0.2" stroke-miterlimit="10"/>
<path d="M10.0195 48.7993C10.0195 48.7993 10.2072 48.3326 10.7541 48.6676C10.7541 48.6676 11.3487 47.931 11.8944 48.4586C11.8944 48.4586 12.48 47.6657 13.0388 48.2683C13.0388 48.2683 13.3295 47.5243 13.9041 48.0422C13.9041 48.0422 14.1171 47.7648 14.2891 48.0048" stroke="#000072" stroke-width="0.2" stroke-miterlimit="10"/>
<path d="M10.2148 49.3486C10.2148 49.3486 10.5454 48.8402 10.968 49.1439C10.968 49.1439 11.3384 48.5645 12.1454 49.0472C12.1454 49.0472 12.5294 48.2628 13.3196 48.8551C13.3196 48.8551 13.6054 48.1877 14.1057 48.7929C14.1057 48.7929 14.1076 48.1452 14.4578 48.4586" stroke="#000072" stroke-width="0.2" stroke-miterlimit="10"/>
<path d="M10.4609 49.9897V49.8266C10.4609 49.8266 10.6824 49.2319 11.2126 49.6199C11.2126 49.6199 11.7601 49.0572 12.3394 49.4913C12.3394 49.4913 12.9381 48.7886 13.4796 49.3488C13.4796 49.3488 13.8057 48.7346 14.29 49.3466" stroke="#000072" stroke-width="0.2" stroke-miterlimit="10"/>
<path d="M10.873 50.1895C10.873 50.1895 10.8936 49.873 11.4189 49.99C11.4189 49.99 11.9819 49.6075 12.5418 49.9641C12.5418 49.9641 12.9368 49.3358 13.6071 49.812C13.6071 49.812 14.0713 49.3224 14.3889 49.737" stroke="#000072" stroke-width="0.2" stroke-miterlimit="10"/>
<path d="M11.1641 50.5835C11.1641 50.5835 11.367 50.3067 11.7383 50.503C11.7383 50.503 12.2204 50.0836 12.7437 50.4327C12.7437 50.4327 13.1078 49.9378 13.7202 50.2939C13.7202 50.2939 14.1086 49.8427 14.4962 50.1886" stroke="#000072" stroke-width="0.2" stroke-miterlimit="10"/>
<path d="M11.5645 50.8643C11.5645 50.8643 11.6281 50.5712 11.9764 50.8514C11.9764 50.8514 12.3833 50.6171 12.8978 50.8643C12.8978 50.8643 13.4588 50.5489 13.8122 50.7972C13.8122 50.7972 14.2715 50.4877 14.5768 50.7831" stroke="#000072" stroke-width="0.2" stroke-miterlimit="10"/>
<path d="M12.1543 51.0688C12.1543 51.0688 12.4249 50.8141 13.0388 51.1191C13.0388 51.1191 13.3757 50.9347 13.6844 50.9997C13.7285 51.009 13.772 51.0234 13.8138 51.0441" stroke="#000072" stroke-width="0.2" stroke-miterlimit="10"/>
<path d="M13.8555 51.1211C13.8555 51.1211 14.1676 50.8762 14.6979 51.0448" stroke="#000072" stroke-width="0.2" stroke-miterlimit="10"/>
<path d="M14.4591 48.3727C14.366 48.5625 14.7274 51.5498 14.7274 51.5498H19.2354L19.1394 51.3287L18.1112 49.5697L17.4676 47.9174C16.0092 47.732 14.5776 44.6691 14.5776 44.6691L13.5625 45.6371L13.813 46.1636L14.2883 47.1487L14.4591 48.3727Z" fill="#000072"/>
<path d="M40.1598 45.4495L37.9531 51.3291" stroke="#000072" stroke-width="0.2" stroke-miterlimit="10"/>
<path d="M40.7476 46.167C40.7476 46.167 40.3553 49.9189 38.5137 51.4189" stroke="#000072" stroke-width="0.2" stroke-miterlimit="10"/>
<path d="M39.3077 45.4132C39.3077 45.4132 37.8132 48.6322 37.1035 51.3643" stroke="#000072" stroke-width="0.2" stroke-miterlimit="10"/>
<path d="M38.0641 45.695C38.0641 45.695 36.9764 47.5242 36.4121 51.7041" stroke="#000072" stroke-width="0.2" stroke-miterlimit="10"/>
<path d="M41.111 47.1577C41.111 47.1577 40.992 46.6376 40.6149 46.9877C40.6149 46.9877 40.4574 46.058 39.7137 46.6321C39.7137 46.6321 39.5037 45.8397 38.851 46.4488C38.851 46.4488 38.343 45.6914 37.7103 46.4488C37.7103 46.4488 37.5795 46.257 37.2734 46.5091" stroke="#000072" stroke-width="0.2" stroke-miterlimit="10"/>
<path d="M41.1494 47.6846C41.1494 47.6846 41.0097 47.1743 40.4953 47.5529C40.4953 47.5529 40.1962 46.9134 39.4547 47.3237C39.4547 47.3237 39.2808 46.676 38.5101 47.0978C38.5101 47.0978 38.2824 46.6048 37.5148 46.9551C37.5148 46.9551 37.3352 46.6433 37.0137 46.9826" stroke="#000072" stroke-width="0.2" stroke-miterlimit="10"/>
<path d="M41.1464 48.2964C41.1464 48.2964 40.8526 47.7468 40.3508 48.1028C40.3508 48.1028 39.8817 47.5069 39.2039 47.9828C39.2039 47.9828 38.9476 47.4019 38.2959 47.7985C38.2959 47.7985 37.9624 47.158 37.2705 47.6106C37.2705 47.6106 37.1436 47.273 36.6406 47.5528" stroke="#000072" stroke-width="0.2" stroke-miterlimit="10"/>
<path d="M41.0269 48.793C41.0269 48.793 40.8538 48.2496 40.1687 48.7003C40.1687 48.7003 39.7019 48.0028 39.0048 48.5192C39.0048 48.5192 38.7035 47.8085 38.0647 48.3891C38.0647 48.3891 37.8632 47.8109 37.1026 48.2502C37.1026 48.2502 36.9912 47.7978 36.6666 48.186C36.3419 48.5742 36.5808 48.1788 36.5808 48.1788" stroke="#000072" stroke-width="0.2" stroke-miterlimit="10"/>
<path d="M40.8431 49.3315C40.8431 49.3315 40.5952 48.7249 39.9843 49.2012C39.9843 49.2012 39.602 48.7059 38.817 49.0187C38.817 49.0187 38.3425 48.5077 37.7923 49.0185C37.7923 49.0185 37.4176 48.499 36.9256 48.9318C36.9256 48.9318 36.734 48.0793 36.2715 48.9031" stroke="#000072" stroke-width="0.2" stroke-miterlimit="10"/>
<path d="M40.471 49.7524C40.471 49.7524 40.4559 49.1983 39.7967 49.644C39.7967 49.644 39.3624 49.1004 38.5977 49.6115C38.5977 49.6115 38.1843 49.0521 37.6252 49.6433C37.6252 49.6433 37.2443 49.1011 36.7718 49.626C36.7718 49.626 36.7569 48.7222 36.1191 49.4307" stroke="#000072" stroke-width="0.2" stroke-miterlimit="10"/>
<path d="M40.156 50.2217C40.156 50.2217 40.0579 49.9193 39.5314 50.1529C39.5314 50.1529 38.9595 49.7678 38.3943 50.143C38.3943 50.143 38.068 49.7316 37.4709 50.1002C37.4709 50.1002 36.9795 49.7161 36.6418 50.0842C36.6418 50.0842 36.6716 49.397 35.9551 49.9247" stroke="#000072" stroke-width="0.2" stroke-miterlimit="10"/>
<path d="M39.7769 50.5892C39.7769 50.5892 39.6961 50.2478 39.2588 50.5892C39.2588 50.5892 38.7622 50.2898 38.2039 50.6514C38.2039 50.6514 37.6545 50.3392 37.301 50.6514C37.301 50.6514 36.9222 50.1909 36.5215 50.6514C36.5215 50.6514 36.3988 50.0429 36.0117 50.5444" stroke="#000072" stroke-width="0.2" stroke-miterlimit="10"/>
<path d="M39.4446 50.7645C39.4446 50.7645 39.2633 50.6157 39.0814 50.8311C39.0814 50.8311 38.3554 50.6398 38.0657 51.0239C38.0657 51.0239 37.7539 50.7192 37.1954 51.0239C37.1954 51.0239 36.9225 50.5739 36.5133 51.0239C36.5133 51.0239 36.2878 50.4256 35.8652 51.0239" stroke="#000072" stroke-width="0.2" stroke-miterlimit="10"/>
<path d="M33.683 47.8696L35.1318 46.6174L36.2714 44.8839L36.4125 44.4991L37.369 45.4496L37.4441 45.9217L36.9256 46.4496L36.6426 47.0981L36.522 47.8696V48.2839L36.5122 48.5604C36.5122 48.5604 36.0174 50.6519 36.2714 51.4751L31.8588 51.5732L31.7148 51.3291L32.4356 50.0737L33.2267 48.408L33.683 47.8696Z" fill="#000072"/>
<path d="M32.8752 39.7497C32.8752 39.7497 29.3438 45.8951 28.9473 47.6108" stroke="#000072" stroke-width="0.2" stroke-miterlimit="10"/>
<path d="M31.7459 40.2212C31.7459 40.2212 28.2939 46.4176 28.5992 46.9419" stroke="#000072" stroke-width="0.2" stroke-miterlimit="10"/>
<path d="M35.0444 39.883C35.0444 39.883 32.4199 46.2936 31.1992 47.7915" stroke="#000072" stroke-width="0.2" stroke-miterlimit="10"/>
<path d="M30.3105 41.1543C30.3105 41.1543 31.1092 40.3964 31.3066 41.0291C31.3066 41.0291 31.8428 40.321 32.2797 40.806C32.2797 40.806 33.3203 40.0546 33.4869 40.8953C33.4869 40.8953 34.433 40.2268 34.5118 41.1543C34.5118 41.1543 34.8553 41.0672 34.847 41.8464C34.847 41.8464 35.1556 42.4518 35.066 42.687" stroke="#000072" stroke-width="0.2" stroke-miterlimit="10"/>
<path d="M31.623 40.4452C31.623 40.4452 32.2484 39.9387 32.6053 40.2213C32.6053 40.2213 33.4468 39.4565 33.8855 40.0928C33.8855 40.0928 34.7176 39.9609 34.7323 40.6279C34.7323 40.6279 35.0692 41.007 35.043 41.1546C35.043 41.1546 34.6573 43.4784 33.9197 44.8594C33.9197 44.8594 32.9417 47.8685 31.9458 48.1094" stroke="#000072" stroke-width="0.2" stroke-miterlimit="10"/>
<path d="M30.1875 41.6213C30.1875 41.6213 30.6875 41.0617 30.984 41.6213C30.984 41.6213 31.7171 40.9875 31.7468 41.6213C31.7468 41.6213 32.9041 41.1195 33.0569 41.7491C33.0569 41.7491 33.9114 41.2029 34.0841 42.1368C34.0841 42.1368 34.9055 41.8613 34.645 42.8116C34.645 42.8116 35.1007 42.7046 35.0148 43.3022" stroke="#000072" stroke-width="0.2" stroke-miterlimit="10"/>
<path d="M29.7363 42.321C29.7363 42.321 30.4629 41.7123 30.5543 42.4287C30.5543 42.4287 31.2578 41.8144 31.2963 42.5909C31.2963 42.5909 32.5533 42.0122 32.5246 42.8116C32.5246 42.8116 33.4026 42.5607 33.5602 43.3131C33.5602 43.3131 34.3187 43.0863 34.3976 43.7211C34.3976 43.7211 34.957 43.6899 34.9046 44.0952" stroke="#000072" stroke-width="0.2" stroke-miterlimit="10"/>
<path d="M29.3535 43.0964C29.3535 43.0964 29.9133 42.2582 30.2536 43.0915C30.2536 43.0915 30.7064 42.7252 30.9119 43.2442C30.9119 43.2442 32.0131 42.9146 32.1096 43.6478C32.1096 43.6478 32.8548 43.228 33.2262 43.891C33.2262 43.891 34.0905 43.7631 34.2162 44.2204C34.2162 44.2204 34.6103 44.1103 34.7517 44.499" stroke="#000072" stroke-width="0.2" stroke-miterlimit="10"/>
<path d="M29.1348 43.5823C29.1348 43.5823 29.6528 43.3395 29.8072 43.8913C29.8072 43.8913 30.3437 43.4703 30.5592 43.9753C30.5592 43.9753 31.4376 43.674 31.7193 44.3057C31.7193 44.3057 32.6709 43.982 32.9803 44.5779C32.9803 44.5779 33.6256 44.4241 33.9777 44.8167C33.9777 44.8167 34.4058 44.6725 34.4642 45.0645" stroke="#000072" stroke-width="0.2" stroke-miterlimit="10"/>
<path d="M28.7578 44.2303C28.7578 44.2303 29.476 43.7517 29.4748 44.5545C29.4748 44.5545 30.0987 44.1586 30.1857 44.6529C30.1857 44.6529 31.157 44.4003 31.397 45.0641C31.397 45.0641 32.2056 44.5357 32.6048 45.3422C32.6048 45.3422 33.4368 44.9428 33.6254 45.6011" stroke="#000072" stroke-width="0.2" stroke-miterlimit="10"/>
<path d="M28.4941 44.9988C28.4941 44.9988 29.0491 44.4621 29.2344 45.0641C29.2344 45.0641 29.7454 44.6763 29.934 45.2268C29.934 45.2268 30.8278 45.0046 31.1297 45.601C31.1297 45.601 31.932 45.2923 32.3225 45.9056C32.3225 45.9056 33.0162 45.5091 33.3745 46.1128" stroke="#000072" stroke-width="0.2" stroke-miterlimit="10"/>
<path d="M28.2461 45.5051C28.2461 45.5051 28.8149 45.1895 28.9939 45.6006C28.9939 45.6006 29.4921 45.2919 29.6839 45.7507C29.6839 45.7507 30.6611 45.5704 30.8127 46.1124C30.8127 46.1124 31.7047 45.8836 32.051 46.4234C32.051 46.4234 32.7287 46.2082 33.1211 46.6351C33.1211 46.6351 33.2799 46.5498 33.2796 46.9419" stroke="#000072" stroke-width="0.2" stroke-miterlimit="10"/>
<path d="M28.0254 45.9827C28.0254 45.9827 28.6333 45.7032 28.7565 46.0615C28.7565 46.0615 29.4087 45.8272 29.4613 46.2282C29.4613 46.2282 30.5673 46.0036 30.633 46.5887C30.633 46.5887 31.6123 46.3257 31.757 46.9423C31.757 46.9423 32.606 46.629 32.7936 47.3237C32.7936 47.3237 33.1248 47.1829 33.2207 47.6108" stroke="#000072" stroke-width="0.2" stroke-miterlimit="10"/>
<path d="M17.5684 39.3019C17.5684 39.3019 20.7163 43.9424 21.4519 46.9419" stroke="#000072" stroke-width="0.2" stroke-miterlimit="10"/>
<path d="M19.377 40.1976C19.377 40.1976 21.7287 44.0612 22.5095 46.6182" stroke="#000072" stroke-width="0.2" stroke-miterlimit="10"/>
<path d="M16.0566 40.0385C16.0566 40.0385 18.7981 47.0092 19.6959 47.5527" stroke="#000072" stroke-width="0.2" stroke-miterlimit="10"/>
<path d="M15.9453 41.3397C15.9453 41.3397 18.1626 47.5514 18.824 47.8691" stroke="#000072" stroke-width="0.2" stroke-miterlimit="10"/>
<path d="M16.2559 40.3188C16.2559 40.3188 16.317 39.5897 16.9794 40.0119C16.9794 40.0119 17.2434 39.4896 17.9938 39.9454C17.9938 39.9454 18.193 39.6657 18.8269 39.8934" stroke="#000072" stroke-width="0.2" stroke-miterlimit="10"/>
<path d="M16.0957 41.749C16.0957 41.749 16.1551 41.2359 16.6225 41.4365C16.6225 41.4365 16.7672 40.7255 17.5716 41.2225C17.5716 41.2225 17.7209 40.4747 18.6088 40.9323C18.6088 40.9323 19.1668 40.2769 19.8095 40.9323C19.8095 40.9323 20.2797 40.5406 20.6231 40.9323" stroke="#000072" stroke-width="0.2" stroke-miterlimit="10"/>
<path d="M15.9453 41.1328C15.9453 41.1328 16.1515 40.8205 16.3992 40.9322C16.3992 40.9322 16.6662 40.2531 17.2429 40.5556C17.2429 40.5556 17.6083 40.0633 18.2678 40.3827C18.2678 40.3827 18.9544 40.0992 19.3752 40.2749" stroke="#000072" stroke-width="0.2" stroke-miterlimit="10"/>
<path d="M15.8711 42.7217C15.8711 42.7217 15.9504 42.3764 16.4001 42.5751C16.4001 42.5751 16.4621 42.0531 16.9776 42.3228C16.9776 42.3228 17.1098 41.6062 18.0271 42.05C18.0271 42.05 18.1197 41.2138 19.0932 41.7488C19.0932 41.7488 19.5214 41.1076 20.1699 41.57C20.1699 41.57 20.2422 41.2048 20.7391 41.5154" stroke="#000072" stroke-width="0.2" stroke-miterlimit="10"/>
<path d="M15.9453 43.5288C15.9453 43.5288 16.1505 42.9574 16.6743 43.3026C16.6743 43.3026 16.7826 42.6933 17.321 43.0964C17.321 43.0964 17.7199 42.5363 18.3041 42.8119C18.3041 42.8119 18.8297 42.0521 19.5113 42.4875C19.5113 42.4875 20.0061 41.9022 20.5404 42.2478C20.5404 42.2478 20.5594 42.0245 21.0651 42.1372" stroke="#000072" stroke-width="0.2" stroke-miterlimit="10"/>
<path d="M16.0957 44.0952C16.0957 44.0952 16.2367 43.5078 16.9005 43.8907C16.9005 43.8907 17.2087 43.4888 17.6103 43.7595C17.6103 43.7595 17.9557 43.0799 18.6694 43.4708C18.6694 43.4708 19.1485 42.852 19.9181 43.2415C19.9181 43.2415 20.2697 42.7248 20.9472 43.0208C20.9472 43.0208 20.8897 42.7171 21.4041 42.9105" stroke="#000072" stroke-width="0.2" stroke-miterlimit="10"/>
<path d="M16.3594 44.6694C16.3594 44.6694 16.5139 44.1539 17.0497 44.4126C17.0497 44.4126 17.3689 43.8732 17.8538 44.2799C17.8538 44.2799 18.0676 43.594 18.9748 44.0629C18.9748 44.0629 19.4077 43.4642 20.2052 43.757C20.2052 43.757 20.5219 43.1909 21.2358 43.5372C21.2358 43.5372 21.3842 43.2562 21.7447 43.4808" stroke="#000072" stroke-width="0.2" stroke-miterlimit="10"/>
<path d="M16.3965 45.1812C16.3965 45.1812 16.6139 44.5211 17.2078 44.6693C17.2078 44.6693 17.7414 44.4117 18.0104 44.6476C18.0104 44.6476 18.7775 44.1308 19.1715 44.499C19.1715 44.499 19.9642 43.9371 20.4446 44.295C20.4446 44.295 20.9859 43.8873 21.5158 44.1712C21.5158 44.1712 21.8062 43.8841 22.1648 44.0955" stroke="#000072" stroke-width="0.2" stroke-miterlimit="10"/>
<path d="M22.5069 44.8834C22.5069 44.8834 21.9548 44.2292 21.8266 44.8446C21.8266 44.8446 20.8841 44.3382 20.7953 45.0638C20.7953 45.0638 19.8694 44.4404 19.5438 45.2549C19.5438 45.2549 18.5971 44.7882 18.3565 45.4454C18.3565 45.4454 17.7527 44.8791 17.6594 45.6008C17.6594 45.6008 17.3442 45.4928 17.2891 45.7729" stroke="#000072" stroke-width="0.2" stroke-miterlimit="10"/>
<path d="M22.7559 45.4452C22.7559 45.4452 22.2454 44.9398 22.1096 45.5128C22.1096 45.5128 21.3592 45.0702 21.0419 45.6687C21.0419 45.6687 20.2326 45.302 19.9182 45.9823C19.9182 45.9823 19.0525 45.5495 18.8229 46.2955C18.8229 46.2955 18.2284 46.0798 18.025 46.6183C18.025 46.6183 17.7193 46.5457 17.5684 46.9419" stroke="#000072" stroke-width="0.2" stroke-miterlimit="10"/>
<path d="M22.8762 45.8788C22.8762 45.8788 22.4909 45.2545 22.311 46.0317C22.311 46.0317 21.8329 45.7651 21.2731 46.3128C21.2731 46.3128 20.5571 46.093 20.164 46.518C20.164 46.518 19.5969 46.3781 19.1854 46.7512C19.1628 46.7717 19.1407 46.7937 19.1191 46.8174" stroke="#000072" stroke-width="0.2" stroke-miterlimit="10"/>
<path d="M19.1389 46.7935C19.1389 46.7935 18.61 46.7505 18.3352 47.1926C18.3352 47.1926 17.9536 47.2072 17.7774 47.6105C17.6012 48.0138 17.6947 47.5527 17.6947 47.5527" stroke="#000072" stroke-width="0.2" stroke-miterlimit="10"/>
<path fill-rule="evenodd" clip-rule="evenodd" d="M25.4532 22.9066C31.5281 22.9066 36.2013 28.5769 36.2013 33.3115C36.2013 38.0463 27.6357 39.9595 25.4532 40.0529C23.2706 40.1462 14.2598 37.9074 14.2598 33.1727C14.2598 28.4379 19.3783 22.9066 25.4532 22.9066Z" fill="#FF850B"/>
<path d="M25.4561 23.1363C19.3978 23.1363 14.5194 28.6265 14.5194 33.1722C14.5194 34.3542 15.1184 35.4657 16.2999 36.476C18.9316 38.7263 23.7331 39.8247 25.3207 39.8248C25.3643 39.8248 25.4052 39.824 25.4439 39.8223C26.5941 39.7732 29.2439 39.2423 31.5338 38.2162C33.5473 37.3139 35.9474 35.7305 35.9474 33.311C35.9474 28.6058 31.3646 23.1363 25.4561 23.1363ZM25.3272 40.2852C23.6242 40.2852 18.7161 39.1782 15.9456 36.8093C14.6585 35.7087 14.0059 34.485 14.0059 33.1722C14.0059 30.8022 15.2721 28.1611 17.3929 26.1072C19.6446 23.9265 22.5835 22.6759 25.4561 22.6759C28.3466 22.6759 31.1332 23.9213 33.3028 26.1829C35.2803 28.2442 36.461 30.9089 36.461 33.311C36.461 35.4124 34.8365 37.251 31.7633 38.6281C29.4067 39.6842 26.6635 40.2312 25.4683 40.2823C25.4242 40.2842 25.377 40.2852 25.3272 40.2852Z" fill="#000072"/>
<g opacity="0.5">
<g opacity="0.5">
<path opacity="0.5" fill-rule="evenodd" clip-rule="evenodd" d="M25.4528 22.9056C29.1864 22.9056 32.3901 25.0478 34.3052 27.7979C34.3251 27.8867 34.3443 27.976 34.3612 28.0659C32.6127 25.7674 29.8864 24.2518 26.8672 23.8429C27.0608 23.9085 27.173 23.9864 27.173 24.07C27.173 24.3037 26.2953 24.4931 25.2127 24.4931C24.1302 24.4931 23.2525 24.3037 23.2525 24.07C23.2525 23.9864 23.3645 23.9085 23.5583 23.8429C20.5389 24.2519 17.8129 25.7676 16.0645 28.0659L16.0741 28.0175C18.0902 25.1575 21.5767 22.9056 25.4528 22.9056Z" fill="white"/>
</g>
</g>
<path fill-rule="evenodd" clip-rule="evenodd" d="M35.9128 34.7658C34.4022 38.4428 27.3967 39.9693 25.4532 40.0524C23.5296 40.1346 16.3035 38.405 14.6152 34.7523C14.7447 32.7628 15.8718 32.219 17.9562 33.1913C18.8134 33.591 19.6853 34.008 20.3763 33.6905C24.3202 31.8777 26.7283 32.2195 29.4278 33.6905C30.6902 34.3785 31.9221 33.3522 32.695 33.0394C35.1567 32.0426 36.2861 32.7398 35.9128 34.7658Z" fill="white"/>
<g opacity="0.300003">
<g opacity="0.300003">
<path opacity="0.300003" fill-rule="evenodd" clip-rule="evenodd" d="M36.1545 32.4844C36.1851 32.7622 36.2013 33.0383 36.2013 33.3112C36.2013 33.4856 36.1883 33.6556 36.1659 33.8225L36.1682 33.7726C35.8682 36.9323 28.773 39.3449 24.956 39.5397C21.7698 39.7024 15.4061 36.6265 14.3361 33.7726C14.3381 33.8317 14.3414 33.8908 14.3444 33.9498C14.2899 33.6984 14.2598 33.4396 14.2598 33.1723C14.2598 32.9596 14.2705 32.7453 14.2907 32.5298L14.3073 32.4837C16.7947 35.6907 20.8751 37.6029 25.2313 37.6029C29.587 37.6029 33.6672 35.6908 36.1545 32.4844Z" fill="#000072"/>
</g>
</g>
<path fill-rule="evenodd" clip-rule="evenodd" d="M21.5246 30.9711C21.1849 30.8353 20.8372 30.6077 20.4819 30.2887C19.8659 30.3137 19.373 30.9038 19.373 31.628C19.373 32.3682 19.8877 32.9683 20.5224 32.9683C21.1573 32.9683 21.672 32.3682 21.672 31.628C21.672 31.3893 21.6184 31.1653 21.5246 30.9711Z" fill="#000072"/>
<path d="M31.173 29.7097C30.7584 30.2036 30.3508 30.5855 29.9502 30.8555C29.3609 31.2525 28.723 31.322 28.6523 30.8847C28.9694 30.8522 29.2997 30.72 29.6433 30.4885C30.4901 29.9178 30.7548 29.5504 31.173 29.7097Z" fill="#000072"/>
<path fill-rule="evenodd" clip-rule="evenodd" d="M29.2392 30.9711C29.5788 30.8353 29.9266 30.6077 30.282 30.2887C30.898 30.3137 31.3907 30.9038 31.3907 31.628C31.3907 32.3682 30.8762 32.9683 30.2413 32.9683C29.6064 32.9683 29.0918 32.3682 29.0918 31.628C29.0918 31.3893 29.1453 31.1653 29.2392 30.9711Z" fill="#000072"/>
<path fill-rule="evenodd" clip-rule="evenodd" d="M29.7633 31.2864C29.5768 31.2864 29.4258 31.4308 29.4258 31.6088C29.4258 31.7868 29.5768 31.9312 29.7633 31.9312C29.9496 31.9312 30.1007 31.7868 30.1007 31.6088C30.1007 31.4308 29.9496 31.2864 29.7633 31.2864Z" fill="white"/>
<path fill-rule="evenodd" clip-rule="evenodd" d="M25.2345 31.8634C26.0565 31.8634 26.7229 32.2618 26.7229 32.7532C26.7229 33.2447 26.0565 33.6431 25.2345 33.6431C24.4124 33.6431 23.7461 33.2447 23.7461 32.7532C23.7461 32.2618 24.4124 31.8634 25.2345 31.8634Z" fill="#000072"/>
<path d="M26.6551 34.7339C26.1312 34.7339 25.6245 34.5592 25.2356 34.247C24.8013 34.6016 24.2027 34.7666 23.6143 34.6827C22.9307 34.5853 22.3511 34.1652 22.1013 33.5863C22.0502 33.4677 22.1159 33.3344 22.2482 33.2885C22.3804 33.2426 22.5291 33.3016 22.5803 33.4202C22.7642 33.8467 23.1913 34.1562 23.6949 34.2279C24.1987 34.2997 24.7116 34.1243 25.034 33.7701C25.0821 33.7172 25.154 33.6862 25.2301 33.6854C25.3068 33.6855 25.3787 33.7143 25.4282 33.7662C25.7644 34.1195 26.2723 34.3072 26.7891 34.2684C27.3052 34.2295 27.7719 33.9684 28.0377 33.5697C28.1104 33.4605 28.2683 33.4249 28.3898 33.4903C28.5115 33.5555 28.5512 33.6969 28.4784 33.806C28.128 34.3316 27.5126 34.676 26.8321 34.7272C26.773 34.7317 26.7139 34.7339 26.6551 34.7339Z" fill="#000072"/>
<path fill-rule="evenodd" clip-rule="evenodd" d="M25.2336 33.915C25.7688 34.3712 26.2946 34.5653 26.8112 34.4971C26.939 37.5043 23.5395 37.3818 23.6552 34.4546C24.2885 34.5267 24.8145 34.3469 25.2336 33.915Z" fill="#000072"/>
<path d="M23.9118 34.7009C23.9372 35.4671 24.2403 36.0695 24.745 36.3375C25.0785 36.5145 25.4553 36.517 25.7789 36.3442C26.2621 36.0861 26.54 35.5084 26.5579 34.7403C26.121 34.7278 25.6821 34.5582 25.2475 34.234C24.8733 34.5445 24.4297 34.7009 23.9234 34.7009C23.9196 34.7009 23.9157 34.7009 23.9118 34.7009ZM25.2727 36.9316C25.003 36.9317 24.7318 36.8657 24.4834 36.7338C23.7525 36.3457 23.3574 35.5121 23.3995 34.4469L23.4095 34.1949L23.6884 34.2267C24.2367 34.289 24.6784 34.1377 25.0407 33.7643L25.2168 33.5828L25.4113 33.7485C25.8907 34.1571 26.3371 34.3277 26.7747 34.2697L27.0578 34.2324L27.0686 34.4888C27.1136 35.5467 26.7392 36.3672 26.0417 36.7398C25.8022 36.8677 25.5381 36.9316 25.2727 36.9316Z" fill="#000072"/>
<path fill-rule="evenodd" clip-rule="evenodd" d="M25.2623 35.578C24.8052 35.578 24.3759 35.7742 24.1074 36.1057C24.7254 36.895 25.8212 36.9079 26.4116 36.099C26.1428 35.7716 25.7161 35.578 25.2623 35.578Z" fill="#FF0066"/>
<path d="M24.437 36.1117C24.675 36.347 24.9744 36.4746 25.285 36.472C25.5853 36.4676 25.8623 36.3405 26.0802 36.1105C25.863 35.9194 25.5675 35.809 25.2594 35.809C24.95 35.809 24.6542 35.9198 24.437 36.1117ZM25.2691 36.9326C24.7403 36.9326 24.2404 36.6807 23.8944 36.2387L23.7891 36.1042L23.8968 35.9711C24.2125 35.5812 24.7219 35.3485 25.2594 35.3485C25.7925 35.3485 26.2994 35.5783 26.6154 35.9632L26.7211 36.092L26.6235 36.2258C26.3013 36.6672 25.8165 36.9248 25.2934 36.9324C25.2853 36.9326 25.2771 36.9326 25.2691 36.9326Z" fill="#000072"/>
<path fill-rule="evenodd" clip-rule="evenodd" d="M34.9504 28.4932C33.3015 26.0497 31.3246 24.3953 29.0195 23.5304C33.5411 17.8486 35.5181 19.5028 34.9504 28.4932Z" fill="#FF850B"/>
<path d="M29.4151 23.434C31.4387 24.2623 33.225 25.7142 34.7363 27.7581C35.0121 22.2185 34.1742 20.7443 33.4035 20.5012C32.8152 20.3158 31.649 20.6845 29.4151 23.434ZM35.1612 29.2485L34.7321 28.6126C33.1196 26.2231 31.1647 24.5847 28.9218 23.7431L28.625 23.6317L28.8119 23.3969C30.8802 20.7979 32.4374 19.7082 33.5738 20.0668C35.0234 20.5241 35.5427 23.2058 35.2081 28.5064L35.1612 29.2485Z" fill="#000072"/>
<path fill-rule="evenodd" clip-rule="evenodd" d="M28.6291 28.79C29.0094 28.6502 29.3928 28.7009 29.4853 28.9033C29.5778 29.1057 29.3445 29.3832 28.9643 29.5231C28.584 29.6629 28.2007 29.6121 28.1081 29.4098C28.0156 29.2074 28.2489 28.9299 28.6291 28.79Z" fill="white"/>
<path fill-rule="evenodd" clip-rule="evenodd" d="M22.0014 28.7769C21.6212 28.637 21.2378 28.6878 21.1453 28.8902C21.0527 29.0925 21.286 29.37 21.6662 29.5099C22.0464 29.6497 22.4298 29.599 22.5223 29.3966C22.6149 29.1943 22.3816 28.9167 22.0014 28.7769Z" fill="white"/>
<path fill-rule="evenodd" clip-rule="evenodd" d="M20.693 31.2864C20.5065 31.2864 20.3555 31.4308 20.3555 31.6088C20.3555 31.7868 20.5065 31.9312 20.693 31.9312C20.8793 31.9312 21.0304 31.7868 21.0304 31.6088C21.0304 31.4308 20.8793 31.2864 20.693 31.2864Z" fill="white"/>
<path fill-rule="evenodd" clip-rule="evenodd" d="M15.6848 28.6099C17.3336 26.1663 19.3105 24.512 21.6156 23.647C17.094 17.9652 15.1171 19.6195 15.6848 28.6099Z" fill="#FF850B"/>
<path d="M17.507 20.5775C17.4038 20.5775 17.3128 20.5924 17.2325 20.6178C16.4618 20.8609 15.6239 22.3351 15.8997 27.8747C17.4108 25.8308 19.1971 24.3789 21.2208 23.5506C19.2919 21.1765 18.159 20.5775 17.507 20.5775ZM15.4748 29.3652L15.4279 28.6231C15.0932 23.3224 15.6125 20.6407 17.0621 20.1834C18.1978 19.8252 19.7555 20.9143 21.824 23.5135L22.0109 23.7483L21.7141 23.8596C19.4711 24.7014 17.5162 26.3397 15.9039 28.7293L15.4748 29.3652Z" fill="#000072"/>
<g opacity="0.649994">
<g opacity="0.649994">
<path opacity="0.649994" fill-rule="evenodd" clip-rule="evenodd" d="M21.0444 23.8779C21.2309 23.7952 21.4199 23.718 21.611 23.6462C18.8086 20.1247 16.9842 19.4226 16.1367 21.5369C17.0393 20.0501 18.675 20.8304 21.0441 23.8778L21.0444 23.8779Z" fill="white"/>
</g>
</g>
<path fill-rule="evenodd" clip-rule="evenodd" d="M16.9187 26.9531C17.7225 26.0616 18.6334 25.29 19.6516 24.6383C17.3692 20.6525 16.4582 21.4241 16.9187 26.9531Z" fill="#000072"/>
<path d="M17.5073 22.3642C17.4961 22.3642 17.4884 22.3655 17.484 22.3667C17.4565 22.3736 17.2125 22.4638 17.1082 23.4789C17.0378 24.1629 17.0461 25.1341 17.1326 26.3711C17.7962 25.6978 18.5304 25.0935 19.3232 24.5684C18.1223 22.5099 17.6241 22.3642 17.5073 22.3642ZM16.7122 27.5498L16.664 26.9703C16.3135 22.763 16.8114 22.0581 17.3448 21.9234C17.9826 21.7619 18.7414 22.5428 19.8812 24.5332L19.9826 24.7102L19.8019 24.8258C18.8078 25.462 17.9053 26.2265 17.1196 27.098L16.7122 27.5498Z" fill="#000072"/>
<g opacity="0.300003">
<g opacity="0.300003">
<path opacity="0.300003" fill-rule="evenodd" clip-rule="evenodd" d="M17.2135 22.2671C16.3806 22.8257 15.8426 24.337 15.5996 26.8008C15.6142 27.3666 15.6418 27.9696 15.6822 28.6099C15.8054 28.4101 15.9356 28.2126 16.0732 28.0183L16.0636 28.0667C16.7289 27.1567 17.4446 26.3677 18.2104 25.6997C17.7626 26.0785 17.3406 26.4863 16.9444 26.923C16.9367 26.9315 16.9289 26.94 16.9211 26.9488C16.9204 26.9495 16.9198 26.9503 16.919 26.9513C16.9183 26.952 16.9177 26.9527 16.917 26.9534C16.6938 24.2744 16.7927 22.7124 17.2135 22.2671ZM33.4183 22.1507C34.2513 22.7093 34.7893 24.2205 35.0322 26.6844C35.0176 27.2502 34.99 27.8532 34.9497 28.4934C34.8264 28.2936 34.6962 28.0963 34.5586 27.9018L34.5682 27.9503C33.903 27.0402 33.1873 26.2512 32.4214 25.5834C32.8693 25.9621 33.2912 26.3699 33.6874 26.8066C33.6951 26.8151 33.7029 26.8237 33.7107 26.8323C33.7114 26.8331 33.7121 26.8339 33.7128 26.8348C33.7136 26.8356 33.7141 26.8362 33.7148 26.837C33.9381 24.1581 33.8391 22.5959 33.4183 22.1507Z" fill="#000072"/>
</g>
</g>
<g opacity="0.649994">
<g opacity="0.649994">
<path opacity="0.649994" fill-rule="evenodd" clip-rule="evenodd" d="M29.5842 23.7622C29.3977 23.6795 29.2087 23.6023 29.0176 23.5306C31.8199 20.0091 33.6444 19.3068 34.492 21.4212C33.5894 19.9344 31.9536 20.7147 29.5845 23.7621L29.5842 23.7622Z" fill="white"/>
</g>
</g>
<path fill-rule="evenodd" clip-rule="evenodd" d="M33.7192 26.8364C32.9154 25.9448 32.0045 25.1732 30.9863 24.5215C33.2687 20.5357 34.1798 21.3073 33.7192 26.8364Z" fill="#000072"/>
<path d="M31.3117 24.4521C32.1046 24.9772 32.8389 25.5816 33.5023 26.2548C33.5888 25.0178 33.5971 24.0466 33.5267 23.3626C33.4223 22.3474 33.1785 22.2573 33.151 22.2503C33.1003 22.2377 32.6284 22.1952 31.3117 24.4521ZM33.9226 27.4336L33.5153 26.9817C32.7298 26.1103 31.8274 25.3458 30.833 24.7094L30.6523 24.5938L30.7537 24.4168C31.8934 22.4265 32.6516 21.6458 33.2902 21.8071C33.8235 21.9418 34.3215 22.6467 33.9709 26.8541L33.9226 27.4336Z" fill="#000072"/>
<path d="M17.5071 20.5775C17.4039 20.5775 17.3129 20.5925 17.2326 20.6178C16.4619 20.8609 15.6239 22.3352 15.8997 27.8748C17.4109 25.8308 19.1972 24.3789 21.2209 23.5506C19.2921 21.1765 18.1591 20.5775 17.5071 20.5775ZM15.4747 29.3652L15.4279 28.6231C15.0932 23.3224 15.6126 20.6406 17.0622 20.1834C18.1979 19.8252 19.7556 20.9143 21.8241 23.5135L22.011 23.7483L21.7142 23.8597C19.4712 24.7014 17.5163 26.3398 15.9039 28.7293L15.4747 29.3652Z" fill="#000072"/>
<path d="M25.4561 23.1363C19.3978 23.1363 14.5194 28.6265 14.5194 33.1722C14.5194 34.3542 15.1184 35.4657 16.2999 36.476C18.9316 38.7263 23.7331 39.8247 25.3207 39.8248C25.3643 39.8248 25.4052 39.824 25.4439 39.8223C26.5941 39.7732 29.2439 39.2423 31.5338 38.2162C33.5473 37.3139 35.9474 35.7305 35.9474 33.311C35.9474 28.6058 31.3646 23.1363 25.4561 23.1363ZM25.3272 40.2852C23.6242 40.2852 18.7161 39.1782 15.9456 36.8093C14.6585 35.7087 14.0059 34.485 14.0059 33.1722C14.0059 30.8022 15.2721 28.1611 17.3929 26.1072C19.6446 23.9265 22.5835 22.6759 25.4561 22.6759C28.3466 22.6759 31.1332 23.9213 33.3028 26.1829C35.2803 28.2442 36.461 30.9089 36.461 33.311C36.461 35.4124 34.8365 37.251 31.7633 38.6281C29.4067 39.6842 26.6635 40.2312 25.4683 40.2823C25.4242 40.2842 25.377 40.2852 25.3272 40.2852Z" fill="#000072"/>
<g opacity="0.559998">
<g opacity="0.559998">
<path opacity="0.559998" fill-rule="evenodd" clip-rule="evenodd" d="M25.7226 32.2197C25.9471 32.2728 26.1131 32.3696 26.0936 32.4359C26.0742 32.5022 25.8765 32.513 25.652 32.4599C25.4275 32.4069 25.2613 32.3101 25.2809 32.2437C25.3004 32.1774 25.4982 32.1666 25.7226 32.2197Z" fill="white"/>
</g>
</g>
<path d="M19.7754 29.7097C20.1901 30.2036 20.5977 30.5855 20.9983 30.8555C21.5877 31.2525 22.2255 31.322 22.2962 30.8847C21.9792 30.8522 21.6488 30.72 21.3052 30.4885C20.4584 29.9178 20.1936 29.5504 19.7754 29.7097Z" fill="#000072"/>
<path d="M29.4151 23.434C31.4387 24.2623 33.225 25.7142 34.7363 27.7581C35.0121 22.2185 34.1742 20.7443 33.4035 20.5012C32.8152 20.3158 31.649 20.6845 29.4151 23.434ZM35.1612 29.2485L34.7321 28.6126C33.1196 26.2231 31.1647 24.5847 28.9218 23.7431L28.625 23.6317L28.8119 23.3969C30.8802 20.7979 32.4374 19.7082 33.5738 20.0668C35.0234 20.5241 35.5427 23.2058 35.2081 28.5064L35.1612 29.2485Z" fill="#000072"/>
</svg>
